/* XPM */
static char * livemix_xpm[] = {
"32 32 54 1",
" 	c None",
".	c #FF0001",
"+	c #314277",
"@	c #000000",
"#	c #FF3101",
"$	c #FF5B00",
"%	c #FF9100",
"&	c #FFA902",
"*	c #FFC401",
"=	c #FFD700",
"-	c #FFFE00",
";	c #EFFF00",
">	c #D6FF00",
",	c #BCFF01",
"'	c #81848E",
")	c #797D87",
"!	c #80848F",
"~	c #4F5159",
"{	c #474950",
"]	c #717581",
"^	c #5F626C",
"/	c #A4FF01",
"(	c #777B85",
"_	c #8B8E96",
":	c #979BA7",
"<	c #3F434E",
"[	c #51FF01",
"}	c #8F939F",
"|	c #6E727D",
"1	c #3B3F49",
"2	c #35FF00",
"3	c #7A7E88",
"4	c #7D818D",
"5	c #777B87",
"6	c #585C68",
"7	c #383C46",
"8	c #38FF00",
"9	c #7B7F8B",
"0	c #838893",
"a	c #60646F",
"b	c #898D99",
"c	c #646874",
"d	c #686C78",
"e	c #8D929E",
"f	c #717580",
"g	c #9A9EAA",
"h	c #393D47",
"i	c #9094A0",
"j	c #737783",
"k	c #666A76",
"l	c #545863",
"m	c #5B5F6A",
"n	c #34373D",
"o	c #2E3136",
"     ... ++    @@ ++ ++ ...     ",
"     ... ++    @@ +++++ ...     ",
"     ... ++    @@ +++++ ...     ",
"     ### ++    @@ +++++ ###     ",
"     $$$ +++++ @@ ++ ++ $$$     ",
"     %%% +++++ @@ ++ ++ %%%     ",
"     &&&       @@       &&&     ",
"     ***       @@       ***     ",
"     ===       @@       ===     ",
"     ---       @@       ---     ",
"     ;;;       @@       ;;;     ",
"     >>>       @@       >>>     ",
"     ,,,    ')!~{!]^    ,,,     ",
"     ///    (_::::]<    ///     ",
"     [[[    (}::::|1    [[[     ",
"     222    34555567    222     ",
"     888    3!9999^7    888     ",
"     888    500000a7    888     ",
"     888    (b____c1    888     ",
"     888    5_}}}}d7    888     ",
"     888    (e::::f7    888     ",
"     888    (}ggggfh    888     ",
"     888    (iggggj7    888     ",
"     888    9]kkkkl<    888     ",
"     888    _cmno66^    888     ",
"     888       @@       888     ",
"     888       @@       888     ",
"     888       @@       888     ",
"     888       @@       888     ",
"     888       @@       888     ",
"     888       @@       888     ",
"     888       @@       888     "};
