/* XPM */
static char *livemix-4[] = {
/* columns rows colors chars-per-pixel */
"32 32 184 2",
"   c black",
".  c #0070009B0119",
"X  c #0B880F891BB6",
"o  c #0E93139E2363",
"O  c #15861CFF33C0",
"+  c #15AE1D34341E",
"@  c #2EEC312236FA",
"#  c #34C337293D7B",
"$  c #382B3C314656",
"%  c #38A33CA846D7",
"&  c #397C3D8047B0",
"*  c #3BBD3FC349EF",
"=  c #3C39403D4A7C",
"-  c #2BDF3CD26AD5",
";  c #28903EFA7C71",
":  c #30913FE6782F",
">  c #332C3F66766F",
",  c #30CD3FB4788C",
"<  c #3CD840DC4B0C",
"1  c #3D26412B4B5D",
"2  c #3D7441784BAB",
"3  c #3E3942304C7E",
"4  c #3FBE43B54E0C",
"5  c #2FA7409074D3",
"6  c #292A44DF7C17",
"7  c #2DA141E1799C",
"8  c #2D6A4293799E",
"9  c #2DDB43627964",
"0  c #2DA4436D797E",
"q  c #309A417275C0",
"w  c #30FD41F3770C",
"e  c #314641EE7706",
"r  c #311F424E7768",
"t  c #31124254779C",
"y  c #3136425B776E",
"u  c #314B425877A0",
"i  c #32094355791E",
"p  c #32B044417B11",
"a  c #32E144E57C0B",
"s  c #337545477CBB",
"d  c #33E146237E88",
"f  c #42B246AA5111",
"g  c #472849BB50E4",
"h  c #4F0351D659B1",
"j  c #546C58636396",
"k  c #592A5CB26621",
"l  c #58A55CAA6814",
"z  c #59855D1A668E",
"x  c #5B4B5F596AD0",
"c  c #5D4060BC6A9C",
"v  c #5D6F60EB6ACC",
"b  c #5F2B62A56CCF",
"n  c #5FEF636D6D98",
"m  c #607064776FF6",
"M  c #64DB68DF744A",
"N  c #65F8696072D5",
"B  c #659169897517",
"V  c #66A46A9C7634",
"C  c #68B36CAD7851",
"Z  c #69A56DA97919",
"A  c #6E5572587DD0",
"S  c #00000EB5FFFF",
"D  c #00006AA1FFFF",
"F  c #710B750F8093",
"G  c #71B075AB8107",
"H  c #73A777B9834A",
"J  c #76F57A75845C",
"K  c #771C7ACC8510",
"L  c #777A7B29856A",
"P  c #78087BB8861B",
"I  c #776E7B72877D",
"U  c #779A7B9E87AA",
"Y  c #78F17C9E86DD",
"T  c #79B27D5D879D",
"R  c #7A687E0D8848",
"E  c #7A4C7E528A59",
"W  c #7ADE7E8688C3",
"Q  c #7B187F1C8B2B",
"!  c #33D7FFFF006A",
"~  c #34BFFFFF0074",
"^  c #34E4FFFF0179",
"/  c #3594FFFF00CF",
"(  c #370FFFFF00E6",
")  c #3712FFFF0116",
"_  c #3761FFFF00DA",
"`  c #374CFFFF010B",
"'  c #3873FFFF005A",
"]  c #39B6FFFF00A7",
"[  c #3AA4FFFF008D",
"{  c #3B5BFFFF00A4",
"}  c #5136FFFF011D",
"|  c #51ABFFFF00BE",
" . c #5156FFFF010E",
".. c #53C7FFFF00B8",
"X. c #0000DF75FFFF",
"o. c #7D2780AB8AB8",
"O. c #7D2481518D3D",
"+. c #7DE581EB8DFA",
"@. c #7F4E83788F60",
"#. c #800184308FF3",
"$. c #B34418B02CEE",
"%. c #B3D218802CA7",
"&. c #B2D8380C2D2B",
"*. c #B14851922E05",
"=. c #D7060D28187C",
"-. c #FFFF00000050",
";. c #FFFF00000101",
":. c #FFFF2DF90056",
">. c #FFFF2EDA0080",
",. c #FFFF31A5009A",
"<. c #FFFF31DD0101",
"1. c #FFFF57D30000",
"2. c #FFFF58C10014",
"3. c #FFFF5B1500F0",
"4. c #FFFF5B380101",
"5. c #FFFF5B7A003E",
"6. c #A464FFFF00F6",
"7. c #A4A1FFFF01BE",
"8. c #A4BBFFFF00E1",
"9. c #A52AFFFF012E",
"0. c #A7E2FFFF0000",
"q. c #BCB0FFFF00D4",
"w. c #BC9DFFFF014B",
"e. c #BCCBFFFF00CF",
"r. c #BCC4FFFF012C",
"t. c #BE59FFFF0000",
"y. c #D58180EE193D",
"u. c #FFFF8DCE0000",
"i. c #FFFF8EA00014",
"p. c #FFFF914C0078",
"a. c #FFFF91E60001",
"s. c #FFFF91BE0322",
"d. c #FFFFA6460047",
"f. c #FFFFA887007F",
"g. c #FFFFA8CA0096",
"h. c #FFFFA9330269",
"j. c #CE46FFFF00FD",
"k. c #CFB7FFFF0101",
"l. c #D44AFFFF00F2",
"z. c #D52EFFFF00EA",
"x. c #D4D8FFFF0101",
"c. c #D6F9FFFF009D",
"v. c #FFFFC4A900FC",
"b. c #FFFFC45C011D",
"n. c #FFFFC6170098",
"m. c #FFFFD76200E3",
"M. c #FFFFD738011D",
"N. c #FFFFD8AA0094",
"B. c #EEE2FFFF0000",
"V. c #EF7DFFFF006F",
"C. c #EFFAFFFF00A7",
"Z. c #F032FFFF01B1",
"A. c #FFFFFE66005F",
"S. c #FFFFFE6F0238",
"D. c yellow",
"F. c #80EA844B8E0D",
"G. c #812184A28EAA",
"H. c #80C284EE9089",
"J. c #82C586CA92D7",
"K. c #83D4880093ED",
"L. c #862588D490D7",
"P. c #8589898F959E",
"I. c #874F8B7D9771",
"U. c #8A9C8D4D954A",
"Y. c #8B618E189660",
"T. c #89388D469946",
"R. c #8AD78F099AFF",
"E. c #8BFB90019C12",
"W. c #8DDD920D9E04",
"Q. c #8F7593A79F9C",
"!. c #8FD393E19FE9",
"~. c #909594C7A0C2",
"^. c #9295969BA2AC",
"/. c #961F9A23A631",
"(. c #971F9B21A72B",
"). c #97759B9AA7B6",
"_. c #97959BBBA7D9",
"`. c #98C59CDBA8F2",
"'. c #9A369E42AA51",
"]. c #9B219F26AB36",
"[. c #9BBE9FC3ABD7",
"{. c #9D05A10BAD1C",
"}. c #9E1AA221AE38",
"|. c None",
/* pixels */
"|.|.|.|.|.;.;.;.|.t t |.|.|.|.    |.t t |.t t |.;.;.;.|.|.|.|.|.",
"|.|.|.|.|.;.;.;.|.t t |.|.|.|.    |.t t t t t |.;.;.;.|.|.|.|.|.",
"|.|.|.|.|.;.;.;.|.t t |.|.|.|.    |.t t t t t |.;.;.;.|.|.|.|.|.",
"|.|.|.|.|.<.<.<.|.t t |.|.|.|.    |.t t t t t |.<.<.<.|.|.|.|.|.",
"|.|.|.|.|.3.3.3.|.t t t t t |.    |.t t |.t t |.3.3.3.|.|.|.|.|.",
"|.|.|.|.|.p.p.p.|.t t t t t |.    |.t t |.t t |.p.p.p.|.|.|.|.|.",
"|.|.|.|.|.h.h.h.|.|.|.|.|.|.|.    |.|.|.|.|.|.|.h.h.f.|.|.|.|.|.",
"|.|.|.|.|.b.b.b.|.|.|.|.|.|.|.    |.|.|.|.|.|.|.b.b.b.|.|.|.|.|.",
"|.|.|.|.|.m.m.m.|.|.|.|.|.|.|.    |.|.|.|.|.|.|.m.m.m.|.|.|.|.|.",
"|.|.|.|.|.A.A.A.|.|.|.|.|.|.|.    |.|.|.|.|.|.|.A.A.A.|.|.|.|.|.",
"|.|.|.|.|.C.C.C.|.|.|.|.|.|.|.    |.|.|.|.|.|.|.C.C.C.|.|.|.|.|.",
"|.|.|.|.|.c.l.c.|.|.|.|.|.|.|.    |.|.|.|.|.|.|.c.c.c.|.|.|.|.|.",
"|.|.|.|.|.w.w.w.|.|.|.|.G.T #.h g #.G b |.|.|.|.w.w.w.|.|.|.|.|.",
"|.|.|.|.|.7.7.7.|.|.|.|.L Y.'._.(.'.G 4 |.|.|.|.7.7.7.|.|.|.|.|.",
"|.|.|.|.|.} } } |.|.|.|.L !.'.(.(.(.A * |.|.|.|.} } } |.|.|.|.|.",
"|.|.|.|.|./ / / |.|.|.|.W O.W I I I l $ |.|.|.|./ / / |.|.|.|.|.",
"|.|.|.|.|.' ' ' |.|.|.|.W #.O.Q W Q b $ |.|.|.|.' ' ' |.|.|.|.|.",
"|.|.|.|.|.' ' ' |.|.|.|.U K.P.K.K.#.m $ |.|.|.|.' ' ' |.|.|.|.|.",
"|.|.|.|.|.' ' ' |.|.|.|.L T.E.Y.T.Y.M * |.|.|.|.' ' ' |.|.|.|.|.",
"|.|.|.|.|.' ' ' |.|.|.|.U Y.~.!.Q.Q.C $ |.|.|.|.' ' ' |.|.|.|.|.",
"|.|.|.|.|.' ' ' |.|.|.|.L W.'.(._./.F $ |.|.|.|.' ' ' |.|.|.|.|.",
"|.|.|.|.|.' ' ' |.|.|.|.L !.[.'.'.'.F & |.|.|.|.' ' ' |.|.|.|.|.",
"|.|.|.|.|.' ' ' |.|.|.|.L ~.}.[.'.'.H $ |.|.|.|.' ' ' |.|.|.|.|.",
"|.|.|.|.|.' ' ' |.|.|.|.Q G C M V V j 4 |.|.|.|.' ' ' |.|.|.|.|.",
"|.|.|.|.|.' ' ' |.|.|.|.Y.M x # @ l l b |.|.|.|.' ' ' |.|.|.|.|.",
"|.|.|.|.|.' ' ' |.|.|.|.|.|.|.    |.|.|.|.|.|.|.' ' ' |.|.|.|.|.",
"|.|.|.|.|.' ' ' |.|.|.|.|.|.|.    |.|.|.|.|.|.|.' ' ' |.|.|.|.|.",
"|.|.|.|.|.' ' ' |.|.|.|.|.|.|.    |.|.|.|.|.|.|.' ' ' |.|.|.|.|.",
"|.|.|.|.|.' ' ' |.|.|.|.|.|.|.    |.|.|.|.|.|.|.' ' ' |.|.|.|.|.",
"|.|.|.|.|.' ' ' |.|.|.|.|.|.|.    |.|.|.|.|.|.|.' ' ' |.|.|.|.|.",
"|.|.|.|.|.' ' ' |.|.|.|.|.|.|.    |.|.|.|.|.|.|.' ' ' |.|.|.|.|.",
"|.|.|.|.|.' ' ' |.|.|.|.|.|.|.    |.|.|.|.|.|.|.' ' ' |.|.|.|.|."
};
