/* XPM */
static char * livemix_xpm[] = {
"32 32 41 1",
" 	c None",
".	c #FF0001",
"+	c #314277",
"@	c #000000",
"#	c #FF3101",
"$	c #FF5B00",
"%	c #FF9100",
"&	c #FFA902",
"*	c #FFC401",
"=	c #FFD700",
"-	c #FFFE00",
";	c #EFFF00",
">	c #D6FF00",
",	c #BCFF01",
"'	c #A4FF01",
")	c #8B8E96",
"!	c #979BA7",
"~	c #717581",
"{	c #51FF01",
"]	c #8F939F",
"^	c #6E727D",
"/	c #35FF00",
"(	c #7D818D",
"_	c #777B87",
":	c #585C68",
"<	c #38FF00",
"[	c #80848F",
"}	c #7B7F8B",
"|	c #5F626C",
"1	c #838893",
"2	c #60646F",
"3	c #898D99",
"4	c #646874",
"5	c #686C78",
"6	c #8D929E",
"7	c #717580",
"8	c #9A9EAA",
"9	c #9094A0",
"0	c #737783",
"a	c #666A76",
"b	c #545863",
"     ... ++    @ ++ ++ ...      ",
"     ... ++    @ +++++ ...      ",
"     ... ++    @ +++++ ...      ",
"     ### ++    @ +++++ ###      ",
"     $$$ +++++ @ ++ ++ $$$      ",
"     %%% +++++ @ ++ ++ %%%      ",
"     &&&       @       &&&      ",
"     ***       @       ***      ",
"     ===       @       ===      ",
"     ---       @       ---      ",
"     ;;;       @       ;;;      ",
"     >>>       @       >>>      ",
"     ,,,       @       ,,,      ",
"     '''    )!!!!!~    '''      ",
"     {{{    ]!!!!!^    {{{      ",
"     ///    (_____:    ///      ",
"     <<<    [}}}}}|    <<<      ",
"     <<<    1111112    <<<      ",
"     <<<    3)))))4    <<<      ",
"     <<<    )]]]]]5    <<<      ",
"     <<<    6!!!!!7    <<<      ",
"     <<<    ]888887    <<<      ",
"     <<<    9888880    <<<      ",
"     <<<    ~aaaaab    <<<      ",
"     <<<       @       <<<      ",
"     <<<       @       <<<      ",
"     <<<       @       <<<      ",
"     <<<       @       <<<      ",
"     <<<       @       <<<      ",
"     <<<       @       <<<      ",
"     <<<       @       <<<      ",
"     <<<       @       <<<      "};
