/* XPM */
static char * application_x_livemix_xpm[] = {
"64 64 353 2",
"  	c None",
". 	c #F8F8F8",
"+ 	c #ECECEC",
"@ 	c #DEDEDE",
"# 	c #D9D9D9",
"$ 	c #F4F4F4",
"% 	c #D4D4D4",
"& 	c #B4B4B4",
"* 	c #A9A9A9",
"= 	c #F0F0F0",
"- 	c #C4C4C4",
"; 	c #979797",
"> 	c #888888",
", 	c #EFEFEF",
"' 	c #BFBFBF",
") 	c #8F8F8F",
"! 	c #7F7F7F",
"~ 	c #FAFAFB",
"{ 	c #F2F3F3",
"] 	c #F3F3F3",
"^ 	c #F3F3F4",
"/ 	c #F3F4F4",
"( 	c #F4F5F5",
"_ 	c #F5F5F5",
": 	c #F5F6F6",
"< 	c #F6F6F6",
"[ 	c #F6F7F7",
"} 	c #F7F7F7",
"| 	c #F7F8F8",
"1 	c #FCFCFC",
"2 	c #E4E5E6",
"3 	c #E5E6E7",
"4 	c #E6E7E7",
"5 	c #E6E7E8",
"6 	c #E7E8E8",
"7 	c #E7E8E9",
"8 	c #E8E9E9",
"9 	c #E8E9EA",
"0 	c #E9EAEA",
"a 	c #E9EAEB",
"b 	c #EAEBEB",
"c 	c #EBECEC",
"d 	c #ECEDED",
"e 	c #EDEEEE",
"f 	c #EEEFEF",
"g 	c #EFF0F0",
"h 	c #F0F1F1",
"i 	c #EEEEEE",
"j 	c #F1F1F1",
"k 	c #F1F2F2",
"l 	c #F2F2F2",
"m 	c #EDEDED",
"n 	c #F8F9F9",
"o 	c #F9F9F9",
"p 	c #F4F4F5",
"q 	c #F9FAFA",
"r 	c #FAFAFA",
"s 	c #FBFBFB",
"t 	c #DADDE3",
"u 	c #949CB7",
"v 	c #8F98B4",
"w 	c #9098B4",
"x 	c #9099B5",
"y 	c #9199B5",
"z 	c #919AB5",
"A 	c #969EB9",
"B 	c #DFE2E8",
"C 	c #7E89A8",
"D 	c #C8CDDB",
"E 	c #D1D5E1",
"F 	c #D0D4E0",
"G 	c #CED2DF",
"H 	c #CDD1DE",
"I 	c #CDD1DD",
"J 	c #CACFDC",
"K 	c #CACEDC",
"L 	c #C8CEDC",
"M 	c #C7CBDA",
"N 	c #C5CBD9",
"O 	c #C5C9D8",
"P 	c #C3C9D7",
"Q 	c #C1C7D7",
"R 	c #C1C6D7",
"S 	c #BEC4D4",
"T 	c #BFC4D5",
"U 	c #BDC3D4",
"V 	c #BCC1D2",
"W 	c #BAC1D3",
"X 	c #B9BED0",
"Y 	c #B1B6CA",
"Z 	c #7B86A7",
"` 	c #98A2BB",
" .	c #F0F2F6",
"..	c #EFF0F4",
"+.	c #EDEEF3",
"@.	c #ECEDF2",
"#.	c #EBECF1",
"$.	c #E8EBF0",
"%.	c #E7E9EF",
"&.	c #E5E8EF",
"*.	c #E4E6ED",
"=.	c #E2E5EC",
"-.	c #E0E2EB",
";.	c #DFE2E9",
">.	c #DDE1E9",
",.	c #DCDFE8",
"'.	c #DADDE6",
").	c #D9DDE7",
"!.	c #D8DAE5",
"~.	c #D6D9E4",
"{.	c #D4D8E3",
"].	c #D2D6E1",
"^.	c #D2D5E1",
"/.	c #8C96B3",
"(.	c #97A1BB",
"_.	c #314277",
":.	c #CED3DF",
"<.	c #8D96B5",
"[.	c #97A0BB",
"}.	c #CCD0DE",
"|.	c #8D96B4",
"1.	c #979FBA",
"2.	c #CCD0DD",
"3.	c #969FBA",
"4.	c #334479",
"5.	c #C3C9D8",
"6.	c #BDC2D3",
"7.	c #FDFDFD",
"8.	c #E0E2EA",
"9.	c #737FA3",
"0.	c #707CA1",
"a.	c #C7CDDB",
"b.	c #8B95B3",
"c.	c #959EB9",
"d.	c #586591",
"e.	c #354579",
"f.	c #C3C8D8",
"g.	c #D3D6E2",
"h.	c #55638F",
"i.	c #8B94B3",
"j.	c #959DB9",
"k.	c #A6ADC5",
"l.	c #7782A5",
"m.	c #7480A3",
"n.	c #A0A7C0",
"o.	c #C7CCDA",
"p.	c #C5CADA",
"q.	c #8A94B2",
"r.	c #949EB9",
"s.	c #E4E6EE",
"t.	c #505E8C",
"u.	c #36487B",
"v.	c #C2C8D7",
"w.	c #BFC6D6",
"x.	c #36477B",
"y.	c #4F5D8A",
"z.	c #C4C9D8",
"A.	c #8994B2",
"B.	c #939DB8",
"C.	c #9CA3BD",
"D.	c #7985A7",
"E.	c #7983A6",
"F.	c #979FBB",
"G.	c #8993B2",
"H.	c #929CB8",
"I.	c #485786",
"J.	c #39497B",
"K.	c #C5CCDA",
"L.	c #C1C6D6",
"M.	c #8992B2",
"N.	c #FEFEFE",
"O.	c #929BB8",
"P.	c #9099B6",
"Q.	c #8E97B5",
"R.	c #C0C5D5",
"S.	c #8893B1",
"T.	c #929CB7",
"U.	c #D5D8E3",
"V.	c #C9CDDB",
"W.	c #425282",
"X.	c #425182",
"Y.	c #BEC4D5",
"Z.	c #8892B1",
"`.	c #919BB7",
" +	c #8891B0",
".+	c #BBC1D2",
"++	c #8792B1",
"@+	c #909AB7",
"#+	c #CCD1DF",
"$+	c #BDC3D3",
"%+	c #BAC0D1",
"&+	c #8691B0",
"*+	c #919BB8",
"=+	c #B8BED1",
"-+	c #B0B7CB",
";+	c #A9AFC6",
">+	c #C6CBDA",
",+	c #C0C5D6",
"'+	c #A4ACC4",
")+	c #B0B6CB",
"!+	c #AFB5C9",
"~+	c #ACB3C8",
"{+	c #B6BDCF",
"]+	c #B6BDCE",
"^+	c #B9BFD0",
"/+	c #8590AF",
"(+	c #909AB6",
"_+	c #BCC0D2",
":+	c #A1A9C1",
"<+	c #A9B0C7",
"[+	c #B6BCCF",
"}+	c #7582A5",
"|+	c #7D88AA",
"1+	c #53628E",
"2+	c #4D5C88",
"3+	c #AAB1C6",
"4+	c #8790B1",
"5+	c #4A5987",
"6+	c #5B6793",
"7+	c #BEC2D3",
"8+	c #747FA2",
"9+	c #B3BACD",
"0+	c #98A1BA",
"a+	c #9FA8BF",
"b+	c #B7BDD0",
"c+	c #BFC3D4",
"d+	c #A6ADC4",
"e+	c #B9C0D1",
"f+	c #838DAD",
"g+	c #5D6A95",
"h+	c #55648F",
"i+	c #B1B7CD",
"j+	c #97A0BA",
"k+	c #596690",
"l+	c #647198",
"m+	c #7783A5",
"n+	c #B4BBCE",
"o+	c #9BA4BD",
"p+	c #A3ABC3",
"q+	c #B7BDCE",
"r+	c #8F99B5",
"s+	c #C2C6D6",
"t+	c #BAC1D2",
"u+	c #B5BACE",
"v+	c #848FAE",
"w+	c #B3BACC",
"x+	c #848EAD",
"y+	c #7F89A9",
"z+	c #C6CCDA",
"A+	c #C4C9D9",
"B+	c #C4C8D7",
"C+	c #C2C7D7",
"D+	c #C1C7D6",
"E+	c #BFC5D5",
"F+	c #BEC3D4",
"G+	c #BCC2D3",
"H+	c #BABFD2",
"I+	c #B9BED1",
"J+	c #B8BED0",
"K+	c #B5BBCD",
"L+	c #B3BBCE",
"M+	c #B2B8CC",
"N+	c #B0B6CA",
"O+	c #AFB4CA",
"P+	c #ADB5C8",
"Q+	c #A2AAC1",
"R+	c #7A85A6",
"S+	c #E2E5EB",
"T+	c #98A0BA",
"U+	c #939BB7",
"V+	c #939CB7",
"W+	c #949CB8",
"X+	c #929BB6",
"Y+	c #959DB8",
"Z+	c #DCDFE5",
"`+	c #EBEBEB",
" @	c #E8E8E8",
".@	c #E5E5E5",
"+@	c #E4E4E4",
"@@	c #E6E6E7",
"#@	c #EAEAEA",
"$@	c #FFFFFF",
"%@	c #E2E2E2",
"&@	c #DADADA",
"*@	c #D3D3D4",
"=@	c #CDCDCE",
"-@	c #CBCBCB",
";@	c #D0D0D1",
">@	c #DCDCDD",
",@	c #E5E5E6",
"'@	c #E7E7E7",
")@	c #E0E0E0",
"!@	c #CFCFCF",
"~@	c #BBBBBB",
"{@	c #B5B5B5",
"]@	c #AEAEAE",
"^@	c #ADAEAE",
"/@	c #B6B6B6",
"(@	c #C6C7C7",
"_@	c #D8D9D9",
":@	c #DDDDDD",
"<@	c #CECECE",
"[@	c #B0B0B0",
"}@	c #9F9F9F",
"|@	c #9A9A9A",
"1@	c #969696",
"2@	c #939494",
"3@	c #959595",
"4@	c #A1A2A2",
"5@	c #C5C5C5",
"6@	c #DCDCDC",
"7@	c #CCCCCC",
"8@	c #D5D5D5",
"9@	c #FAFBFB",
"0@	c #C3C3C3",
"a@	c #8D8E8E",
"b@	c #8E8E8E",
"c@	c #999999",
"d@	c #D3D3D3",
"e@	c #CDCDCD",
"f@	c #BCBCBC",
"g@	c #979898",
"h@	c #D9D9DA",
"i@	c #939393",
"j@	c #DBDBDB",
"k@	c #CACACA",
"l@	c #D1D1D2",
"m@	c #ACACAC",
"n@	c #AFAFB0",
"o@	c #C6C6C6",
"p@	c #E3E3E4",
"q@	c #C8C8C8",
"r@	c #A4A4A4",
"s@	c #919191",
"t@	c #BFBFC0",
"u@	c #A0A1A1",
"v@	c #9D9D9D",
"w@	c #E9E9E9",
"x@	c #D8D8D8",
"y@	c #BABABA",
"z@	c #A8A8A9",
"A@	c #BFC0C0",
"B@	c #C7C7C7",
"C@	c #D4D4D5",
"D@	c #BABABB",
"E@	c #D0D0D0",
"F@	c #D7D7D7",
"G@	c #DFDFDF",
"H@	c #D2D2D2",
"I@	c #DFDFE0",
"J@	c #D1D1D1",
"K@	c #E6E6E6",
"L@	c #F5F5F6",
"              . . . . . . . . . . . . . . . . . . . . . . . . . . . . . . . . . . . . . . . . . . . . . . .                     ",
"          + @ # # # # # # # # # # # # # # # # # # # # # # # # # # # # # # # # # # # # # # # # # # # # # # # @ +                 ",
"        $ % & * * * * * * * * * * * * * * * * * * * * * * * * * * * * * * * * * * * * * * * * * * * * * * * & % $               ",
"        = - ; > > > > > > > > > > > > > > > > > > > > > > > > > > > > > > > > > > > > > > > > > > > > > > > ; - =               ",
"        , ' ) ! ~ { { ] ^ / $ $ ( ( _ _ : : < < < < [ [ [ } } } } } | | | | . . . . . . . . . . . . . . . . . 1 ,               ",
"        , ' ) ! { 2 3 4 5 6 7 8 9 0 a b b c c c d d d e e e e f f f f , g g g g g = = = h h h h h h h h h h h | ,               ",
"        , ' ) ! ] 3 4 5 6 7 8 0 0 b b c c c d d d e e e i f f f , g g g g = = h h h h j j j j j j j j j j j j . ,               ",
"        , ' ) ! ^ 4 6 6 8 8 0 0 b b c c d d d e e e i f f f , g g g = h h h j j j k k k k k k l l l l l l l l . ,               ",
"        , ' ) ! / 6 7 8 9 0 b b c c c d d m e e i f f , g g g = h h h j j k k k k l l l { { { { { { { { { { { n ,               ",
"        , ' ) ! $ 7 8 0 0 b b c c + d d e e e f f f g g g = h h j j k k k l l { { { { ] ] ] ] ] ] ] ] ] ] ] ] o ,               ",
"        , ' ) ! p 8 0 0 b b c c d d m e e i f f , g g = h h j k k k l l { { ] ] ] ] / / / / $ $ $ $ $ $ $ $ $ o ,               ",
"        , ' ) ! ( 0 0 b c c c d d e e e f f , g g = h h j k k l l { { ] ] ] / / $ $ $ $ $ $ ( ( ( ( ( ( ( ( ( q ,               ",
"        , ' ) ! _ 0 b c c c d d e e i f f g g = h h j k k l l { { ] ] / / $ $ $ ( ( ( _ _ _ _ _ _ _ _ _ _ _ _ r ,               ",
"        , ' ) ! _ b c c + d d e e f f , g g = h j j k l l { ] ] ] / $ $ $ ( ( _ _ _ _ : : : < < < < < < < < < r ,               ",
"        , ' ) ! : c c d d m e e f f , g = h h j k k l { { ] / / $ $ ( ( _ _ _ : < < < < < < < < [ [ [ [ [ [ < r ,               ",
"        , ' ) ! < c d d m e e f f g g = h j k k l { { ] / / $ $ ( _ _ _ : < < < < [ [ } } } } } } } } } } } } s ,               ",
"        , ' ) ! < d d m e i f f g g = h j k k l { ] ] / $ $ ( _ _ : < < < < [ } } } } } | . . . . . . . . . . s ,               ",
"        , ' ) ! < d m e i f f g g h h j k t u v v v w w x x x x y y y z z z z z z z z A B . . . . n n n n . . s ,               ",
"        , ' ) ! [ m e i f , g g h h j k l C D E F G H I J K L M N O P Q R S T U V W X Y Z o o o o o o o o o o 1 ,               ",
"        , ' ) ! [ e e f f g g h h j k l { `  ...+.@.#.$.%.&.*.=.-.;.>.,.'.).!.~.{.].^.F /.r r r r r r r r r r 1 ,               ",
"        , ' ) ! } e f f g g h h k k l { ] (..._._.#.$.%.&.*.=.-.;.>.,.'.).!.~.{.].^.F :.<.r r r r r r r r r r 1 ,               ",
"        , ' ) ! } f f g g h h k k l { ] / [.+._._.$.%.&.*.=.-.;.>.,.'.).!.~.{.].^.F :.}.|.r r r r r r r r r r 1 ,               ",
"        , ' ) ! } f g g h h k k l { ] / $ 1.@._._.%.&.*.=.-.;.>.,.'.).!.~.{.].^.F :.}.2./.r r s s s s s s s s 1 ,               ",
"        , ' ) ! } , g = h j k l { ] / $ ( 3.#._._.&.*.=.-.;._._.4.5.!.~.{.].6.4._._.2.K /.s s s s s s s s s s 7.,               ",
"        , ' ) ! } g = h j k l { ] / $ ( _ 3.$._._.*.=.-.8.>._._._.9.~.{.].^.0._._._.K a.b.s s s s s s s s s s 7.,               ",
"        , ' ) ! | = h j k l { ] / $ ( _ : c.%._._.=.-.8.>.,._._.d.e.f.g.^.S e.h._._.a.M i.s s s s s 1 1 s s s 7.,               ",
"        , ' ) ! | h j k l { ] / $ ( _ : < j.&._._.-.8.>.,.'._._.k._.l.^.F m._.n._._.o.p.q.1 1 1 1 1 1 1 1 1 1 7.,               ",
"        , ' ) ! . h k k { ] / $ ( _ : < < r.s._._.8.>.,.'.)._._.{.t.u.v.w.x.y.K _._.p.z.A.1 1 1 1 1 1 1 1 1 1 7.,               ",
"        , ' ) ! . j k l { ] $ $ _ _ < < } B.=._._.>.,.'.).!._._.g.C._.D.E._.F.a._._.z.v.G.1 1 1 1 1 1 1 1 1 1 7.,               ",
"        , ' ) ! . k l { ] / $ _ _ < < } } H.-._._.,.'.).!.~._._.^.:.I.J.J.I.K.o._._.v.L.M.7.7.7.7.7.7.7.7.7.7.N.,               ",
"        , ' ) ! n l { ] / $ ( _ : < } } . O.8._._._._._._._._._.F :.P._._.Q.o.p._._.L.R.S.7.7.7.7.7.7.7.7.7.7.N.,               ",
"        , ' ) ! n l { ] $ ( _ : < [ } . . T.>.,.'.).!.~.U.g._._.:.}.V.W.X.z.p.z._._.R.Y.Z.7.7.7.7.7.7.7.7.7.7.N.,               ",
"        , ' ) ! o { ] / $ _ _ < < } | . o `.,.'.).!.~.U.g.^._._.}.2.K a.o.p.z.v._._.Y.6. +N.N.N.N.N.N.N.N.N.N.N.,               ",
"        , ' ) ! o ] / $ ( _ < < } } . . o `.'.).!.~.U.g.^.F _._.2.K D o.p.z.v.L._._.6..+++N.N.N.N.N.N.N.N.N.N.N.,               ",
"        , ' ) ! o ] / $ _ : < [ } . . o o @+).!.~.U.g.^.F :.#+2.K D o.p.z.v.L.R.Y.$+.+%+&+N.N.N.N.N.N.N.N.N.N.N.,               ",
"        , ' ) ! o / $ ( _ < < } | . o o r *+!.g.o.K G =+U #+-+;+>+,+'+)+v.!+~+U {+-+]+^+/+N.N.N.N.N.N.N.N.N.N.N.,               ",
"        , ' ) ! o / $ _ : < } } . . o r r (+~._+:+<+[+}+|+2.1+2+3+4+5+6+7+8+9.9+0+x a+b+/+7.7.7.7.1 1 1 1 7.7.N.,               ",
"        , ' ) ! q $ ( _ < < } | . o o r r P.U.c+d+~+e+|+f+K g+h+i+j+k+l+6.m+m+n+o+j.p+q+/+1 s s s s s s s s s 7.,               ",
"        , ' ) ! q $ _ : < } } . . o r r r r+g.^.F :.#+2.K D o.p.z.v.s+R.Y.$+.+t+^+b+q+u+v+r r r o o o o o o r 1 ,               ",
"        , ' ) ! r ( _ < < } | . o o r r r r+^.F :.#+2.K D o.p.z.v.s+R.Y.$+.+t+^+b+q+u+w+x+. } } < < < < < < } s ,               ",
"        , ' ) ! r _ _ < [ } . . o r r r r y+.+z+A+B+C+D+E+F+G+t+H+I+J+]+K+L+M+-+N+O+P+Q+R+_ _ $ ] ] ] ] ] ] $ r ,               ",
"        , ' ) ! r _ : < } } . o o r r r s S+T+U+V+V+V+V+V+V+V+V+W+W+W+W+W+V+V+U+X+z y Y+Z+] l j = = = = = = j . =               ",
"        , ' ) ! r _ < < } . . o r r r r s s s s 1 1 1 7.7.7.7.N.N.N.N.N.7.1 r o } < $ ] j = , i i m m m m i i } ]               ",
"        , ' ) ! r : < } } . n o r r r r s s s 1 1 1 1 7.7.7.N.N.N.N.N.7.1 r o } _ ] l = , m `+ @.@+@+@@@#@#@`+j                 ",
"        , ' ) ! r : < } | . o o r r r s s s s 1 1 1 7.7.7.7.N.N.N.$@7.1 s o } _ l m  @+@%@@ &@*@=@-@;@>@+@,@&@'@                ",
"        , ' ) ! r < < } . . o r r r r s s s 1 1 1 1 7.7.7.N.N.N.N.N.1 s r } _ ] m )@!@- ' ~@{@]@^@/@(@_@:@<@@                   ",
"        , ' ) ! r < [ } . . o r r r r s s s 1 1 1 7.7.7.7.N.N.N.N.7.s r . < ] j  @!@[@}@|@1@2@3@4@5@6@# 7@8@                    ",
"        , ' ) ! 9@< } } . o o r r r s s s s 1 1 1 7.7.7.N.N.N.N.N.1 s o < $ j , +@0@}@a@b@c@[@d@`+'@&@e@!@                      ",
"        , ' ) ! 9@< } | . o o r r r s s s 1 1 1 1 7.7.7.N.N.N.N.7.s r . _ l = m )@f@g@b@$@$@$@$ '@&@e@-@.                       ",
"        , ' ) ! 9@< } . . o r r r r s s s 1 1 1 7.7.7.7.N.N.N.N.1 s o < $ j i `+h@{@i@c@$@$@$ '@j@e@k@<                         ",
"        , ' ) ! s < } . . o r r r r s s s 1 1 1 7.7.7.N.N.N.N.7.1 r . _ ] = m '@l@m@) n@$@_  @j@<@o@]                           ",
"        , ' ) ! s [ } . . o r r r s s s s 1 1 1 7.7.7.N.N.N.$@7.s r } $ l , + p@q@r@s@l@_  @j@<@- =                             ",
"        , ' ) ! s [ } . n o r r r s s s s 1 1 1 7.7.7.N.N.N.N.7.s o < $ j i `+@ t@u@v@`+w@6@!@5@`+                              ",
"        , ' ) ! s [ } . o o r r r s s s 1 1 1 1 7.7.7.N.N.N.N.1 s o < ] = m  @x@y@z@A@w@6@!@B@=                                 ",
"        , ' ) ! s [ } . o o r r r s s s 1 1 1 1 7.7.7.N.N.N.N.1 s . < ] = m .@C@' D@6@6@E@k@]                                   ",
"        , ' ) ! s } } . o o r r r s s s 1 1 1 1 7.7.7.N.N.N.N.1 r . _ l , m .@F@7@E@:@E@e@}                                     ",
"        , ' ) ! s } } . o o r r r s s s 1 1 1 1 7.7.7.N.N.N.N.1 r . _ l , + '@G@&@6@E@H@                                        ",
"        , ' ) ! s [ } . o o r r r s s s 1 1 1 1 7.7.7.N.N.N.N.1 r . _ ] = m w@+@I@J@x@                                          ",
"        j B@v@) s [ } . o o r r r s s s 1 1 1 1 7.7.7.N.N.N.N.1 s o < ] = m #@K@j@%@                                            ",
"        } G@B@' 7.s s 1 1 1 7.7.7.7.7.7.7.N.N.N.N.N.N.$@$@$@$@N.7.1 s o . } L@= #@                                              ",
"          } j , , , , , , , , , , , , , , , , , , , , , , , , , , , , , , = $                                                   ",
"                                                                                                                                ",
"                                                                                                                                ",
"                                                                                                                                "};
