<?xml version="1.0" encoding="UTF-8" standalone="no"?>
<!-- Created with Inkscape (http://www.inkscape.org/) -->
<svg
   xmlns:dc="http://purl.org/dc/elements/1.1/"
   xmlns:cc="http://web.resource.org/cc/"
   xmlns:rdf="http://www.w3.org/1999/02/22-rdf-syntax-ns#"
   xmlns:svg="http://www.w3.org/2000/svg"
   xmlns="http://www.w3.org/2000/svg"
   xmlns:sodipodi="http://sodipodi.sourceforge.net/DTD/sodipodi-0.dtd"
   xmlns:inkscape="http://www.inkscape.org/namespaces/inkscape"
   id="svg2"
   sodipodi:version="0.32"
   inkscape:version="0.45.1"
   width="23.01"
   height="500"
   version="1.0"
   sodipodi:docbase="/home/sbrunner/workspace/livemix/data"
   sodipodi:docname="fader_leds.svg"
   inkscape:output_extension="org.inkscape.output.svg.inkscape">
  <metadata
     id="metadata7">
    <rdf:RDF>
      <cc:Work
         rdf:about="">
        <dc:format>image/svg+xml</dc:format>
        <dc:type
           rdf:resource="http://purl.org/dc/dcmitype/StillImage" />
      </cc:Work>
    </rdf:RDF>
  </metadata>
  <defs
     id="defs5" />
  <sodipodi:namedview
     inkscape:window-height="1122"
     inkscape:window-width="1600"
     inkscape:pageshadow="2"
     inkscape:pageopacity="0.0"
     guidetolerance="10.0"
     gridtolerance="10.0"
     objecttolerance="10.0"
     borderopacity="1.0"
     bordercolor="#666666"
     pagecolor="#ffffff"
     id="base"
     inkscape:zoom="25.668484"
     inkscape:cx="5.1269641"
     inkscape:cy="487.41813"
     inkscape:window-x="0"
     inkscape:window-y="0"
     inkscape:current-layer="svg2"
     height="500px"
     width="23.01px"
     borderlayer="true" />
  <rect
     style="fill:#37ff01;fill-opacity:1;fill-rule:evenodd;stroke:none;stroke-width:3.54330707;stroke-miterlimit:4;stroke-dasharray:none;stroke-opacity:1"
     id="l7"
     width="9.9727058"
     height="4.1265807"
     x="-415.99533"
     y="-8.1593761"
     transform="matrix(0,-1,-1,0,0,0)" />
  <rect
     style="fill:#37ff01;fill-opacity:1;fill-rule:evenodd;stroke:none;stroke-width:3.54330707;stroke-miterlimit:4;stroke-dasharray:none;stroke-opacity:1"
     id="l8"
     width="9.9727058"
     height="4.1265807"
     x="-401.99451"
     y="-8.1593761"
     transform="matrix(0,-1,-1,0,0,0)" />
  <rect
     style="fill:#37ff01;fill-opacity:1;fill-rule:evenodd;stroke:none;stroke-width:3.54330707;stroke-miterlimit:4;stroke-dasharray:none;stroke-opacity:1"
     id="l9"
     width="9.9727058"
     height="4.1265807"
     x="-387.99377"
     y="-8.1593761"
     transform="matrix(0,-1,-1,0,0,0)" />
  <rect
     style="fill:#37ff01;fill-opacity:1;fill-rule:evenodd;stroke:none;stroke-width:3.54330707;stroke-miterlimit:4;stroke-dasharray:none;stroke-opacity:1"
     id="l10"
     width="9.9727058"
     height="4.1265807"
     x="-373.99298"
     y="-8.1593761"
     transform="matrix(0,-1,-1,0,0,0)" />
  <rect
     style="fill:#37ff01;fill-opacity:1;fill-rule:evenodd;stroke:none;stroke-width:3.54330707;stroke-miterlimit:4;stroke-dasharray:none;stroke-opacity:1"
     id="l11"
     width="9.9727058"
     height="4.1265807"
     x="-359.99219"
     y="-8.1593761"
     transform="matrix(0,-1,-1,0,0,0)" />
  <rect
     style="fill:#37ff01;fill-opacity:1;fill-rule:evenodd;stroke:none;stroke-width:3.54330707;stroke-miterlimit:4;stroke-dasharray:none;stroke-opacity:1"
     id="l12"
     width="9.9727058"
     height="4.1265807"
     x="-345.99139"
     y="-8.1593761"
     transform="matrix(0,-1,-1,0,0,0)" />
  <rect
     style="fill:#37ff01;fill-opacity:1;fill-rule:evenodd;stroke:none;stroke-width:3.54330707;stroke-miterlimit:4;stroke-dasharray:none;stroke-opacity:1"
     id="l13"
     width="9.9727058"
     height="4.1265807"
     x="-331.99063"
     y="-8.1593761"
     transform="matrix(0,-1,-1,0,0,0)" />
  <rect
     style="fill:#37ff01;fill-opacity:1;fill-rule:evenodd;stroke:none;stroke-width:3.54330707;stroke-miterlimit:4;stroke-dasharray:none;stroke-opacity:1"
     id="l14"
     width="9.9727058"
     height="4.1265807"
     x="-317.98987"
     y="-8.1593761"
     transform="matrix(0,-1,-1,0,0,0)" />
  <rect
     style="fill:#37ff01;fill-opacity:1;fill-rule:evenodd;stroke:none;stroke-width:3.54330707;stroke-miterlimit:4;stroke-dasharray:none;stroke-opacity:1"
     id="l15"
     width="9.9727058"
     height="4.1265807"
     x="-303.98907"
     y="-8.1593761"
     transform="matrix(0,-1,-1,0,0,0)" />
  <rect
     style="fill:#37ff01;fill-opacity:1;fill-rule:evenodd;stroke:none;stroke-width:3.54330707;stroke-miterlimit:4;stroke-dasharray:none;stroke-opacity:1"
     id="l16"
     width="9.9727058"
     height="4.1265807"
     x="-289.98831"
     y="-8.1593761"
     transform="matrix(0,-1,-1,0,0,0)" />
  <rect
     style="fill:#37ff01;fill-opacity:1;fill-rule:evenodd;stroke:none;stroke-width:3.54330707;stroke-miterlimit:4;stroke-dasharray:none;stroke-opacity:1"
     id="l17"
     width="9.9727058"
     height="4.1265807"
     x="-275.98752"
     y="-8.1593761"
     transform="matrix(0,-1,-1,0,0,0)" />
  <rect
     style="fill:#37ff01;fill-opacity:1;fill-rule:evenodd;stroke:none;stroke-width:3.54330707;stroke-miterlimit:4;stroke-dasharray:none;stroke-opacity:1"
     id="l18"
     width="9.9727058"
     height="4.1265807"
     x="-261.98672"
     y="-8.1593761"
     transform="matrix(0,-1,-1,0,0,0)" />
  <rect
     style="fill:#37ff01;fill-opacity:1;fill-rule:evenodd;stroke:none;stroke-width:3.54330707;stroke-miterlimit:4;stroke-dasharray:none;stroke-opacity:1"
     id="l19"
     width="9.9727058"
     height="4.1265807"
     x="-247.98596"
     y="-8.1593761"
     transform="matrix(0,-1,-1,0,0,0)" />
  <rect
     style="fill:#37ff01;fill-opacity:1;fill-rule:evenodd;stroke:none;stroke-width:3.54330707;stroke-miterlimit:4;stroke-dasharray:none;stroke-opacity:1"
     id="l20"
     width="9.9727058"
     height="4.1265807"
     x="-233.9852"
     y="-8.1593761"
     transform="matrix(0,-1,-1,0,0,0)" />
  <rect
     style="fill:#a9ff01;fill-opacity:1;fill-rule:evenodd;stroke:none;stroke-width:3.54330707;stroke-miterlimit:4;stroke-dasharray:none;stroke-opacity:1"
     id="l21"
     width="9.9727058"
     height="4.1265807"
     x="-219.98441"
     y="-8.1593761"
     transform="matrix(0,-1,-1,0,0,0)" />
  <rect
     style="fill:#a9ff01;fill-opacity:1;fill-rule:evenodd;stroke:none;stroke-width:3.54330707;stroke-miterlimit:4;stroke-dasharray:none;stroke-opacity:1"
     id="l22"
     width="9.9727058"
     height="4.1265807"
     x="-205.98364"
     y="-8.1593761"
     transform="matrix(0,-1,-1,0,0,0)" />
  <rect
     style="fill:#d4ff01;fill-opacity:1;fill-rule:evenodd;stroke:none;stroke-width:3.54330707;stroke-miterlimit:4;stroke-dasharray:none;stroke-opacity:1"
     id="l23"
     width="9.9727058"
     height="4.1265807"
     x="-191.98285"
     y="-8.1593761"
     transform="matrix(0,-1,-1,0,0,0)" />
  <rect
     style="fill:#d4ff01;fill-opacity:1;fill-rule:evenodd;stroke:none;stroke-width:3.54330707;stroke-miterlimit:4;stroke-dasharray:none;stroke-opacity:1"
     id="l24"
     width="9.9727058"
     height="4.1265807"
     x="-177.98206"
     y="-8.1593761"
     transform="matrix(0,-1,-1,0,0,0)" />
  <rect
     style="fill:#ffff01;fill-opacity:1;fill-rule:evenodd;stroke:none;stroke-width:3.54330707;stroke-miterlimit:4;stroke-dasharray:none;stroke-opacity:1"
     id="l25"
     width="9.9727058"
     height="4.1265807"
     x="-163.98129"
     y="-8.1593761"
     transform="matrix(0,-1,-1,0,0,0)" />
  <rect
     style="fill:#ffff01;fill-opacity:1;fill-rule:evenodd;stroke:none;stroke-width:3.54330707;stroke-miterlimit:4;stroke-dasharray:none;stroke-opacity:1"
     id="l26"
     width="9.9727058"
     height="4.1265807"
     x="-149.9805"
     y="-8.1593761"
     transform="matrix(0,-1,-1,0,0,0)" />
  <rect
     style="fill:#ffca01;fill-opacity:1;fill-rule:evenodd;stroke:none;stroke-width:3.54330707;stroke-miterlimit:4;stroke-dasharray:none;stroke-opacity:1"
     id="l27"
     width="9.9727058"
     height="4.1265807"
     x="-135.97971"
     y="-8.1593761"
     transform="matrix(0,-1,-1,0,0,0)" />
  <rect
     style="fill:#ffca01;fill-opacity:1;fill-rule:evenodd;stroke:none;stroke-width:3.54330707;stroke-miterlimit:4;stroke-dasharray:none;stroke-opacity:1"
     id="l28"
     width="9.9727058"
     height="4.1265807"
     x="-121.97895"
     y="-8.1593761"
     transform="matrix(0,-1,-1,0,0,0)" />
  <rect
     style="fill:#ffa401;fill-opacity:1;fill-rule:evenodd;stroke:none;stroke-width:3.54330707;stroke-miterlimit:4;stroke-dasharray:none;stroke-opacity:1"
     id="l29"
     width="9.9727058"
     height="4.1265807"
     x="-107.97816"
     y="-8.1593761"
     transform="matrix(0,-1,-1,0,0,0)" />
  <rect
     style="fill:#ffa401;fill-opacity:1;fill-rule:evenodd;stroke:none;stroke-width:3.54330707;stroke-miterlimit:4;stroke-dasharray:none;stroke-opacity:1"
     id="l30"
     width="9.9727058"
     height="4.1265807"
     x="-93.977364"
     y="-8.1593761"
     transform="matrix(0,-1,-1,0,0,0)" />
  <rect
     style="fill:#ff5901;fill-opacity:1;fill-rule:evenodd;stroke:none;stroke-width:3.54330707;stroke-miterlimit:4;stroke-dasharray:none;stroke-opacity:1"
     id="l31"
     width="9.9727058"
     height="4.1265807"
     x="-79.976601"
     y="-8.1593761"
     transform="matrix(0,-1,-1,0,0,0)" />
  <rect
     style="fill:#ff5901;fill-opacity:1;fill-rule:evenodd;stroke:none;stroke-width:3.54330707;stroke-miterlimit:4;stroke-dasharray:none;stroke-opacity:1"
     id="l32"
     width="9.9727058"
     height="4.1265807"
     x="-65.975807"
     y="-8.1593761"
     transform="matrix(0,-1,-1,0,0,0)" />
  <rect
     style="fill:#ff0001;fill-opacity:1;fill-rule:evenodd;stroke:none;stroke-width:3.54330707;stroke-miterlimit:4;stroke-dasharray:none;stroke-opacity:1"
     id="l34"
     width="9.9727058"
     height="4.1265807"
     x="-37.974251"
     y="-8.1593761"
     transform="matrix(0,-1,-1,0,0,0)" />
  <rect
     style="fill:#ff0001;fill-opacity:1;fill-rule:evenodd;stroke:none;stroke-width:3.54330707;stroke-miterlimit:4;stroke-dasharray:none;stroke-opacity:1"
     id="l35"
     width="9.9727058"
     height="4.1265807"
     x="-23.973488"
     y="-8.1593761"
     transform="matrix(0,-1,-1,0,0,0)" />
  <rect
     style="fill:#ff0001;fill-opacity:1;fill-rule:evenodd;stroke:none;stroke-width:3.54330707;stroke-miterlimit:4;stroke-dasharray:none;stroke-opacity:1"
     id="l36"
     width="9.9727058"
     height="4.1265807"
     x="-9.9726944"
     y="-8.1593761"
     transform="matrix(0,-1,-1,0,0,0)" />
  <rect
     style="fill:#37ff01;fill-opacity:1;fill-rule:evenodd;stroke:none;stroke-width:3.54330707;stroke-miterlimit:4;stroke-dasharray:none;stroke-opacity:1"
     id="l1"
     width="9.9727058"
     height="4.1265807"
     x="-500"
     y="-8.1593761"
     transform="matrix(0,-1,-1,0,0,0)" />
  <rect
     style="fill:#37ff01;fill-opacity:1;fill-rule:evenodd;stroke:none;stroke-width:3.54330707;stroke-miterlimit:4;stroke-dasharray:none;stroke-opacity:1"
     id="l2"
     width="9.9727058"
     height="4.1265807"
     x="-485.99927"
     y="-8.1593761"
     transform="matrix(0,-1,-1,0,0,0)" />
  <rect
     style="fill:#37ff01;fill-opacity:1;fill-rule:evenodd;stroke:none;stroke-width:3.54330707;stroke-miterlimit:4;stroke-dasharray:none;stroke-opacity:1"
     id="l3"
     width="9.9727058"
     height="4.1265807"
     x="-471.99841"
     y="-8.1593761"
     transform="matrix(0,-1,-1,0,0,0)" />
  <rect
     style="fill:#37ff01;fill-opacity:1;fill-rule:evenodd;stroke:none;stroke-width:3.54330707;stroke-miterlimit:4;stroke-dasharray:none;stroke-opacity:1"
     id="l4"
     width="9.9727058"
     height="4.1265807"
     x="-457.99768"
     y="-8.1593761"
     transform="matrix(0,-1,-1,0,0,0)" />
  <rect
     style="fill:#37ff01;fill-opacity:1;fill-rule:evenodd;stroke:none;stroke-width:3.54330707;stroke-miterlimit:4;stroke-dasharray:none;stroke-opacity:1"
     id="l5"
     width="9.9727058"
     height="4.1265807"
     x="-443.99689"
     y="-8.1593761"
     transform="matrix(0,-1,-1,0,0,0)" />
  <rect
     style="fill:#37ff01;fill-opacity:1;fill-rule:evenodd;stroke:none;stroke-width:3.54330707;stroke-miterlimit:4;stroke-dasharray:none;stroke-opacity:1"
     id="l6"
     width="9.9727058"
     height="4.1265807"
     x="-429.99612"
     y="-8.1593761"
     transform="matrix(0,-1,-1,0,0,0)" />
  <rect
     style="fill:#ff0001;fill-opacity:1;fill-rule:evenodd;stroke:none;stroke-width:3.54330707;stroke-miterlimit:4;stroke-dasharray:none;stroke-opacity:1"
     id="l33"
     width="9.9727058"
     height="4.1265807"
     x="-51.975044"
     y="-8.1593761"
     transform="matrix(0,-1,-1,0,0,0)" />
  <rect
     style="fill:#37ff01;fill-opacity:1;fill-rule:evenodd;stroke:none;stroke-width:3.54330707;stroke-miterlimit:4;stroke-dasharray:none;stroke-opacity:1"
     id="rect4029"
     width="9.9727058"
     height="4.1265807"
     x="-415.99533"
     y="-18.976021"
     transform="matrix(0,-1,-1,0,0,0)" />
  <rect
     style="fill:#37ff01;fill-opacity:1;fill-rule:evenodd;stroke:none;stroke-width:3.54330707;stroke-miterlimit:4;stroke-dasharray:none;stroke-opacity:1"
     id="rect4031"
     width="9.9727058"
     height="4.1265807"
     x="-401.99451"
     y="-18.976021"
     transform="matrix(0,-1,-1,0,0,0)" />
  <rect
     style="fill:#37ff01;fill-opacity:1;fill-rule:evenodd;stroke:none;stroke-width:3.54330707;stroke-miterlimit:4;stroke-dasharray:none;stroke-opacity:1"
     id="rect4033"
     width="9.9727058"
     height="4.1265807"
     x="-387.99377"
     y="-18.976021"
     transform="matrix(0,-1,-1,0,0,0)" />
  <rect
     style="fill:#37ff01;fill-opacity:1;fill-rule:evenodd;stroke:none;stroke-width:3.54330707;stroke-miterlimit:4;stroke-dasharray:none;stroke-opacity:1"
     id="rect4035"
     width="9.9727058"
     height="4.1265807"
     x="-373.99298"
     y="-18.976021"
     transform="matrix(0,-1,-1,0,0,0)" />
  <rect
     style="fill:#37ff01;fill-opacity:1;fill-rule:evenodd;stroke:none;stroke-width:3.54330707;stroke-miterlimit:4;stroke-dasharray:none;stroke-opacity:1"
     id="rect4037"
     width="9.9727058"
     height="4.1265807"
     x="-359.99219"
     y="-18.976021"
     transform="matrix(0,-1,-1,0,0,0)" />
  <rect
     style="fill:#37ff01;fill-opacity:1;fill-rule:evenodd;stroke:none;stroke-width:3.54330707;stroke-miterlimit:4;stroke-dasharray:none;stroke-opacity:1"
     id="rect4039"
     width="9.9727058"
     height="4.1265807"
     x="-345.99139"
     y="-18.976021"
     transform="matrix(0,-1,-1,0,0,0)" />
  <rect
     style="fill:#37ff01;fill-opacity:1;fill-rule:evenodd;stroke:none;stroke-width:3.54330707;stroke-miterlimit:4;stroke-dasharray:none;stroke-opacity:1"
     id="rect4041"
     width="9.9727058"
     height="4.1265807"
     x="-331.99063"
     y="-18.976021"
     transform="matrix(0,-1,-1,0,0,0)" />
  <rect
     style="fill:#37ff01;fill-opacity:1;fill-rule:evenodd;stroke:none;stroke-width:3.54330707;stroke-miterlimit:4;stroke-dasharray:none;stroke-opacity:1"
     id="rect4043"
     width="9.9727058"
     height="4.1265807"
     x="-317.98987"
     y="-18.976021"
     transform="matrix(0,-1,-1,0,0,0)" />
  <rect
     style="fill:#37ff01;fill-opacity:1;fill-rule:evenodd;stroke:none;stroke-width:3.54330707;stroke-miterlimit:4;stroke-dasharray:none;stroke-opacity:1"
     id="rect4045"
     width="9.9727058"
     height="4.1265807"
     x="-303.98907"
     y="-18.976021"
     transform="matrix(0,-1,-1,0,0,0)" />
  <rect
     style="fill:#37ff01;fill-opacity:1;fill-rule:evenodd;stroke:none;stroke-width:3.54330707;stroke-miterlimit:4;stroke-dasharray:none;stroke-opacity:1"
     id="rect4047"
     width="9.9727058"
     height="4.1265807"
     x="-289.98831"
     y="-18.976021"
     transform="matrix(0,-1,-1,0,0,0)" />
  <rect
     style="fill:#37ff01;fill-opacity:1;fill-rule:evenodd;stroke:none;stroke-width:3.54330707;stroke-miterlimit:4;stroke-dasharray:none;stroke-opacity:1"
     id="rect4049"
     width="9.9727058"
     height="4.1265807"
     x="-275.98752"
     y="-18.976021"
     transform="matrix(0,-1,-1,0,0,0)" />
  <rect
     style="fill:#37ff01;fill-opacity:1;fill-rule:evenodd;stroke:none;stroke-width:3.54330707;stroke-miterlimit:4;stroke-dasharray:none;stroke-opacity:1"
     id="rect4051"
     width="9.9727058"
     height="4.1265807"
     x="-261.98672"
     y="-18.976021"
     transform="matrix(0,-1,-1,0,0,0)" />
  <rect
     style="fill:#37ff01;fill-opacity:1;fill-rule:evenodd;stroke:none;stroke-width:3.54330707;stroke-miterlimit:4;stroke-dasharray:none;stroke-opacity:1"
     id="rect4053"
     width="9.9727058"
     height="4.1265807"
     x="-247.98596"
     y="-18.976021"
     transform="matrix(0,-1,-1,0,0,0)" />
  <rect
     style="fill:#37ff01;fill-opacity:1;fill-rule:evenodd;stroke:none;stroke-width:3.54330707;stroke-miterlimit:4;stroke-dasharray:none;stroke-opacity:1"
     id="rect4055"
     width="9.9727058"
     height="4.1265807"
     x="-233.9852"
     y="-18.976021"
     transform="matrix(0,-1,-1,0,0,0)" />
  <rect
     style="fill:#a9ff01;fill-opacity:1;fill-rule:evenodd;stroke:none;stroke-width:3.54330707;stroke-miterlimit:4;stroke-dasharray:none;stroke-opacity:1"
     id="rect4057"
     width="9.9727058"
     height="4.1265807"
     x="-219.98441"
     y="-18.976021"
     transform="matrix(0,-1,-1,0,0,0)" />
  <rect
     style="fill:#a9ff01;fill-opacity:1;fill-rule:evenodd;stroke:none;stroke-width:3.54330707;stroke-miterlimit:4;stroke-dasharray:none;stroke-opacity:1"
     id="rect4059"
     width="9.9727058"
     height="4.1265807"
     x="-205.98364"
     y="-18.976021"
     transform="matrix(0,-1,-1,0,0,0)" />
  <rect
     style="fill:#d4ff01;fill-opacity:1;fill-rule:evenodd;stroke:none;stroke-width:3.54330707;stroke-miterlimit:4;stroke-dasharray:none;stroke-opacity:1"
     id="rect4061"
     width="9.9727058"
     height="4.1265807"
     x="-191.98285"
     y="-18.976021"
     transform="matrix(0,-1,-1,0,0,0)" />
  <rect
     style="fill:#d4ff01;fill-opacity:1;fill-rule:evenodd;stroke:none;stroke-width:3.54330707;stroke-miterlimit:4;stroke-dasharray:none;stroke-opacity:1"
     id="rect4063"
     width="9.9727058"
     height="4.1265807"
     x="-177.98206"
     y="-18.976021"
     transform="matrix(0,-1,-1,0,0,0)" />
  <rect
     style="fill:#ffff01;fill-opacity:1;fill-rule:evenodd;stroke:none;stroke-width:3.54330707;stroke-miterlimit:4;stroke-dasharray:none;stroke-opacity:1"
     id="rect4065"
     width="9.9727058"
     height="4.1265807"
     x="-163.98129"
     y="-18.976021"
     transform="matrix(0,-1,-1,0,0,0)" />
  <rect
     style="fill:#ffff01;fill-opacity:1;fill-rule:evenodd;stroke:none;stroke-width:3.54330707;stroke-miterlimit:4;stroke-dasharray:none;stroke-opacity:1"
     id="rect4067"
     width="9.9727058"
     height="4.1265807"
     x="-149.9805"
     y="-18.976021"
     transform="matrix(0,-1,-1,0,0,0)" />
  <rect
     style="fill:#ffca01;fill-opacity:1;fill-rule:evenodd;stroke:none;stroke-width:3.54330707;stroke-miterlimit:4;stroke-dasharray:none;stroke-opacity:1"
     id="rect4069"
     width="9.9727058"
     height="4.1265807"
     x="-135.97971"
     y="-18.976021"
     transform="matrix(0,-1,-1,0,0,0)" />
  <rect
     style="fill:#ffca01;fill-opacity:1;fill-rule:evenodd;stroke:none;stroke-width:3.54330707;stroke-miterlimit:4;stroke-dasharray:none;stroke-opacity:1"
     id="rect4071"
     width="9.9727058"
     height="4.1265807"
     x="-121.97895"
     y="-18.976021"
     transform="matrix(0,-1,-1,0,0,0)" />
  <rect
     style="fill:#ffa401;fill-opacity:1;fill-rule:evenodd;stroke:none;stroke-width:3.54330707;stroke-miterlimit:4;stroke-dasharray:none;stroke-opacity:1"
     id="rect4073"
     width="9.9727058"
     height="4.1265807"
     x="-107.97816"
     y="-18.976021"
     transform="matrix(0,-1,-1,0,0,0)" />
  <rect
     style="fill:#ffa401;fill-opacity:1;fill-rule:evenodd;stroke:none;stroke-width:3.54330707;stroke-miterlimit:4;stroke-dasharray:none;stroke-opacity:1"
     id="rect4075"
     width="9.9727058"
     height="4.1265807"
     x="-93.977364"
     y="-18.976021"
     transform="matrix(0,-1,-1,0,0,0)" />
  <rect
     style="fill:#ff5901;fill-opacity:1;fill-rule:evenodd;stroke:none;stroke-width:3.54330707;stroke-miterlimit:4;stroke-dasharray:none;stroke-opacity:1"
     id="rect4077"
     width="9.9727058"
     height="4.1265807"
     x="-79.976601"
     y="-18.976021"
     transform="matrix(0,-1,-1,0,0,0)" />
  <rect
     style="fill:#ff5901;fill-opacity:1;fill-rule:evenodd;stroke:none;stroke-width:3.54330707;stroke-miterlimit:4;stroke-dasharray:none;stroke-opacity:1"
     id="rect4079"
     width="9.9727058"
     height="4.1265807"
     x="-65.975807"
     y="-18.976021"
     transform="matrix(0,-1,-1,0,0,0)" />
  <rect
     style="fill:#ff0001;fill-opacity:1;fill-rule:evenodd;stroke:none;stroke-width:3.54330707;stroke-miterlimit:4;stroke-dasharray:none;stroke-opacity:1"
     id="rect4081"
     width="9.9727058"
     height="4.1265807"
     x="-37.974251"
     y="-18.976021"
     transform="matrix(0,-1,-1,0,0,0)" />
  <rect
     style="fill:#ff0001;fill-opacity:1;fill-rule:evenodd;stroke:none;stroke-width:3.54330707;stroke-miterlimit:4;stroke-dasharray:none;stroke-opacity:1"
     id="rect4083"
     width="9.9727058"
     height="4.1265807"
     x="-23.973488"
     y="-18.976021"
     transform="matrix(0,-1,-1,0,0,0)" />
  <rect
     style="fill:#ff0001;fill-opacity:1;fill-rule:evenodd;stroke:none;stroke-width:3.54330707;stroke-miterlimit:4;stroke-dasharray:none;stroke-opacity:1"
     id="rect4085"
     width="9.9727058"
     height="4.1265807"
     x="-9.9726944"
     y="-18.976021"
     transform="matrix(0,-1,-1,0,0,0)" />
  <rect
     style="fill:#37ff01;fill-opacity:1;fill-rule:evenodd;stroke:none;stroke-width:3.54330707;stroke-miterlimit:4;stroke-dasharray:none;stroke-opacity:1"
     id="rect4087"
     width="9.9727058"
     height="4.1265807"
     x="-500"
     y="-18.976021"
     transform="matrix(0,-1,-1,0,0,0)" />
  <rect
     style="fill:#37ff01;fill-opacity:1;fill-rule:evenodd;stroke:none;stroke-width:3.54330707;stroke-miterlimit:4;stroke-dasharray:none;stroke-opacity:1"
     id="rect4089"
     width="9.9727058"
     height="4.1265807"
     x="-485.99927"
     y="-18.976021"
     transform="matrix(0,-1,-1,0,0,0)" />
  <rect
     style="fill:#37ff01;fill-opacity:1;fill-rule:evenodd;stroke:none;stroke-width:3.54330707;stroke-miterlimit:4;stroke-dasharray:none;stroke-opacity:1"
     id="rect4091"
     width="9.9727058"
     height="4.1265807"
     x="-471.99841"
     y="-18.976021"
     transform="matrix(0,-1,-1,0,0,0)" />
  <rect
     style="fill:#37ff01;fill-opacity:1;fill-rule:evenodd;stroke:none;stroke-width:3.54330707;stroke-miterlimit:4;stroke-dasharray:none;stroke-opacity:1"
     id="rect4093"
     width="9.9727058"
     height="4.1265807"
     x="-457.99768"
     y="-18.976021"
     transform="matrix(0,-1,-1,0,0,0)" />
  <rect
     style="fill:#37ff01;fill-opacity:1;fill-rule:evenodd;stroke:none;stroke-width:3.54330707;stroke-miterlimit:4;stroke-dasharray:none;stroke-opacity:1"
     id="rect4095"
     width="9.9727058"
     height="4.1265807"
     x="-443.99689"
     y="-18.976021"
     transform="matrix(0,-1,-1,0,0,0)" />
  <rect
     style="fill:#37ff01;fill-opacity:1;fill-rule:evenodd;stroke:none;stroke-width:3.54330707;stroke-miterlimit:4;stroke-dasharray:none;stroke-opacity:1"
     id="rect4097"
     width="9.9727058"
     height="4.1265807"
     x="-429.99612"
     y="-18.976021"
     transform="matrix(0,-1,-1,0,0,0)" />
  <rect
     style="fill:#ff0001;fill-opacity:1;fill-rule:evenodd;stroke:none;stroke-width:3.54330707;stroke-miterlimit:4;stroke-dasharray:none;stroke-opacity:1"
     id="rect4099"
     width="9.9727058"
     height="4.1265807"
     x="-51.975044"
     y="-18.976021"
     transform="matrix(0,-1,-1,0,0,0)" />
</svg>
