<?xml version="1.0" encoding="UTF-8" standalone="no"?>
<!-- Created with Inkscape (http://www.inkscape.org/) -->
<svg
   xmlns:dc="http://purl.org/dc/elements/1.1/"
   xmlns:cc="http://web.resource.org/cc/"
   xmlns:rdf="http://www.w3.org/1999/02/22-rdf-syntax-ns#"
   xmlns:svg="http://www.w3.org/2000/svg"
   xmlns="http://www.w3.org/2000/svg"
   xmlns:sodipodi="http://sodipodi.sourceforge.net/DTD/sodipodi-0.dtd"
   xmlns:inkscape="http://www.inkscape.org/namespaces/inkscape"
   id="svg2"
   sodipodi:version="0.32"
   inkscape:version="0.45.1"
   width="23.008814"
   height="106.58163"
   version="1.0"
   sodipodi:docbase="/home/sbrunner/workspace/livemix/data"
   sodipodi:docname="fader_background.svg"
   inkscape:output_extension="org.inkscape.output.svg.inkscape">
  <metadata
     id="metadata7">
    <rdf:RDF>
      <cc:Work
         rdf:about="">
        <dc:format>image/svg+xml</dc:format>
        <dc:type
           rdf:resource="http://purl.org/dc/dcmitype/StillImage" />
      </cc:Work>
    </rdf:RDF>
  </metadata>
  <defs
     id="defs5" />
  <sodipodi:namedview
     inkscape:window-height="1122"
     inkscape:window-width="1600"
     inkscape:pageshadow="2"
     inkscape:pageopacity="0.0"
     guidetolerance="10.0"
     gridtolerance="10.0"
     objecttolerance="10.0"
     borderopacity="1.0"
     bordercolor="#666666"
     pagecolor="#ffffff"
     id="base"
     inkscape:zoom="8.1124759"
     inkscape:cx="8.3858932"
     inkscape:cy="52.740196"
     inkscape:window-x="0"
     inkscape:window-y="0"
     inkscape:current-layer="svg2"
     height="136.58px"
     width="23.008814px"
     borderlayer="true" />
  <rect
     style="fill:#3a3e48;fill-opacity:1;fill-rule:evenodd;stroke:none;stroke-width:3.54330707;stroke-miterlimit:4;stroke-dasharray:none;stroke-opacity:1"
     id="rect3846"
     width="23.008814"
     height="106.58"
     x="0"
     y="0.00081132411" />
  <rect
     style="fill:#000000;fill-opacity:1;fill-rule:evenodd;stroke:none;stroke-width:3.54330707;stroke-miterlimit:4;stroke-dasharray:none;stroke-opacity:1"
     id="rect3758"
     width="6.3774433"
     height="106.58"
     x="2.9073639"
     y="0.00081132411" />
  <rect
     style="fill:#3a3e48;fill-opacity:1;fill-rule:evenodd;stroke:none;stroke-width:3.54330707;stroke-miterlimit:4;stroke-dasharray:none;stroke-opacity:1"
     id="rect2273"
     width="106.47845"
     height="4.2751846"
     x="-106.53003"
     y="-8.2336769"
     transform="matrix(0,-1,-1,0,0,0)" />
  <g
     id="g3522"
     transform="translate(17.913112,63.887705)"
     style="fill:#32353c;fill-opacity:1">
    <rect
       transform="matrix(0,-1,-1,0,0,0)"
       y="9.7537365"
       x="-24.78721"
       height="4.1265807"
       width="2.1258144"
       id="rect3246"
       style="fill:#32353c;fill-opacity:1;fill-rule:evenodd;stroke:none;stroke-width:3.54330707;stroke-miterlimit:4;stroke-dasharray:none;stroke-opacity:1" />
    <rect
       transform="matrix(0,-1,-1,0,0,0)"
       y="9.7537365"
       x="-21.802757"
       height="4.1265807"
       width="2.1258144"
       id="rect3248"
       style="fill:#32353c;fill-opacity:1;fill-rule:evenodd;stroke:none;stroke-width:3.54330707;stroke-miterlimit:4;stroke-dasharray:none;stroke-opacity:1" />
    <rect
       transform="matrix(0,-1,-1,0,0,0)"
       y="9.7537365"
       x="-18.818308"
       height="4.1265807"
       width="2.1258144"
       id="rect3250"
       style="fill:#32353c;fill-opacity:1;fill-rule:evenodd;stroke:none;stroke-width:3.54330707;stroke-miterlimit:4;stroke-dasharray:none;stroke-opacity:1" />
    <rect
       transform="matrix(0,-1,-1,0,0,0)"
       y="9.7537365"
       x="-15.833855"
       height="4.1265807"
       width="2.1258144"
       id="rect3252"
       style="fill:#32353c;fill-opacity:1;fill-rule:evenodd;stroke:none;stroke-width:3.54330707;stroke-miterlimit:4;stroke-dasharray:none;stroke-opacity:1" />
    <rect
       transform="matrix(0,-1,-1,0,0,0)"
       y="9.7537365"
       x="-12.849403"
       height="4.1265807"
       width="2.1258144"
       id="rect3254"
       style="fill:#32353c;fill-opacity:1;fill-rule:evenodd;stroke:none;stroke-width:3.54330707;stroke-miterlimit:4;stroke-dasharray:none;stroke-opacity:1" />
    <rect
       transform="matrix(0,-1,-1,0,0,0)"
       y="9.7537365"
       x="-9.864953"
       height="4.1265807"
       width="2.1258144"
       id="rect3256"
       style="fill:#32353c;fill-opacity:1;fill-rule:evenodd;stroke:none;stroke-width:3.54330707;stroke-miterlimit:4;stroke-dasharray:none;stroke-opacity:1" />
    <rect
       transform="matrix(0,-1,-1,0,0,0)"
       y="9.7537365"
       x="-6.8804989"
       height="4.1265807"
       width="2.1258144"
       id="rect3258"
       style="fill:#32353c;fill-opacity:1;fill-rule:evenodd;stroke:none;stroke-width:3.54330707;stroke-miterlimit:4;stroke-dasharray:none;stroke-opacity:1" />
    <rect
       transform="matrix(0,-1,-1,0,0,0)"
       y="9.7537365"
       x="-3.8960471"
       height="4.1265807"
       width="2.1258144"
       id="rect3260"
       style="fill:#32353c;fill-opacity:1;fill-rule:evenodd;stroke:none;stroke-width:3.54330707;stroke-miterlimit:4;stroke-dasharray:none;stroke-opacity:1" />
    <rect
       transform="matrix(0,-1,-1,0,0,0)"
       y="9.7537365"
       x="-0.9115954"
       height="4.1265807"
       width="2.1258144"
       id="rect3262"
       style="fill:#32353c;fill-opacity:1;fill-rule:evenodd;stroke:none;stroke-width:3.54330707;stroke-miterlimit:4;stroke-dasharray:none;stroke-opacity:1" />
    <rect
       transform="matrix(0,-1,-1,0,0,0)"
       y="9.7537365"
       x="2.0728567"
       height="4.1265807"
       width="2.1258144"
       id="rect3264"
       style="fill:#32353c;fill-opacity:1;fill-rule:evenodd;stroke:none;stroke-width:3.54330707;stroke-miterlimit:4;stroke-dasharray:none;stroke-opacity:1" />
    <rect
       transform="matrix(0,-1,-1,0,0,0)"
       y="9.7537365"
       x="5.0573082"
       height="4.1265807"
       width="2.1258144"
       id="rect3266"
       style="fill:#32353c;fill-opacity:1;fill-rule:evenodd;stroke:none;stroke-width:3.54330707;stroke-miterlimit:4;stroke-dasharray:none;stroke-opacity:1" />
    <rect
       transform="matrix(0,-1,-1,0,0,0)"
       y="9.7537365"
       x="8.0417604"
       height="4.1265807"
       width="2.1258144"
       id="rect3268"
       style="fill:#32353c;fill-opacity:1;fill-rule:evenodd;stroke:none;stroke-width:3.54330707;stroke-miterlimit:4;stroke-dasharray:none;stroke-opacity:1" />
    <rect
       transform="matrix(0,-1,-1,0,0,0)"
       y="9.7537365"
       x="11.02621"
       height="4.1265807"
       width="2.1258144"
       id="rect3270"
       style="fill:#32353c;fill-opacity:1;fill-rule:evenodd;stroke:none;stroke-width:3.54330707;stroke-miterlimit:4;stroke-dasharray:none;stroke-opacity:1" />
    <rect
       transform="matrix(0,-1,-1,0,0,0)"
       y="9.7537365"
       x="14.010662"
       height="4.1265807"
       width="2.1258144"
       id="rect3272"
       style="fill:#32353c;fill-opacity:1;fill-rule:evenodd;stroke:none;stroke-width:3.54330707;stroke-miterlimit:4;stroke-dasharray:none;stroke-opacity:1" />
    <rect
       transform="matrix(0,-1,-1,0,0,0)"
       y="9.7537365"
       x="16.995113"
       height="4.1265807"
       width="2.1258144"
       id="rect3274"
       style="fill:#32353c;fill-opacity:1;fill-rule:evenodd;stroke:none;stroke-width:3.54330707;stroke-miterlimit:4;stroke-dasharray:none;stroke-opacity:1" />
    <rect
       transform="matrix(0,-1,-1,0,0,0)"
       y="9.7537365"
       x="19.979565"
       height="4.1265807"
       width="2.1258144"
       id="rect3276"
       style="fill:#32353c;fill-opacity:1;fill-rule:evenodd;stroke:none;stroke-width:3.54330707;stroke-miterlimit:4;stroke-dasharray:none;stroke-opacity:1" />
    <rect
       transform="matrix(0,-1,-1,0,0,0)"
       y="9.7537365"
       x="22.964018"
       height="4.1265807"
       width="2.1258144"
       id="rect3278"
       style="fill:#32353c;fill-opacity:1;fill-rule:evenodd;stroke:none;stroke-width:3.54330707;stroke-miterlimit:4;stroke-dasharray:none;stroke-opacity:1" />
    <rect
       transform="matrix(0,-1,-1,0,0,0)"
       y="9.7537365"
       x="25.948471"
       height="4.1265807"
       width="2.1258144"
       id="rect3280"
       style="fill:#32353c;fill-opacity:1;fill-rule:evenodd;stroke:none;stroke-width:3.54330707;stroke-miterlimit:4;stroke-dasharray:none;stroke-opacity:1" />
    <rect
       transform="matrix(0,-1,-1,0,0,0)"
       y="9.7537365"
       x="28.932922"
       height="4.1265807"
       width="2.1258144"
       id="rect3282"
       style="fill:#32353c;fill-opacity:1;fill-rule:evenodd;stroke:none;stroke-width:3.54330707;stroke-miterlimit:4;stroke-dasharray:none;stroke-opacity:1" />
    <rect
       transform="matrix(0,-1,-1,0,0,0)"
       y="9.7537365"
       x="31.917372"
       height="4.1265807"
       width="2.1258144"
       id="rect3284"
       style="fill:#32353c;fill-opacity:1;fill-rule:evenodd;stroke:none;stroke-width:3.54330707;stroke-miterlimit:4;stroke-dasharray:none;stroke-opacity:1" />
    <rect
       transform="matrix(0,-1,-1,0,0,0)"
       y="9.7537365"
       x="34.901825"
       height="4.1265807"
       width="2.1258144"
       id="rect3286"
       style="fill:#32353c;fill-opacity:1;fill-rule:evenodd;stroke:none;stroke-width:3.54330707;stroke-miterlimit:4;stroke-dasharray:none;stroke-opacity:1" />
    <rect
       transform="matrix(0,-1,-1,0,0,0)"
       y="9.7537365"
       x="37.886276"
       height="4.1265807"
       width="2.1258144"
       id="rect3288"
       style="fill:#32353c;fill-opacity:1;fill-rule:evenodd;stroke:none;stroke-width:3.54330707;stroke-miterlimit:4;stroke-dasharray:none;stroke-opacity:1" />
    <rect
       transform="matrix(0,-1,-1,0,0,0)"
       y="9.7537365"
       x="40.870731"
       height="4.1265807"
       width="2.1258144"
       id="rect3290"
       style="fill:#32353c;fill-opacity:1;fill-rule:evenodd;stroke:none;stroke-width:3.54330707;stroke-miterlimit:4;stroke-dasharray:none;stroke-opacity:1" />
    <rect
       transform="matrix(0,-1,-1,0,0,0)"
       y="9.7537365"
       x="43.855183"
       height="4.1265807"
       width="2.1258144"
       id="rect3292"
       style="fill:#32353c;fill-opacity:1;fill-rule:evenodd;stroke:none;stroke-width:3.54330707;stroke-miterlimit:4;stroke-dasharray:none;stroke-opacity:1" />
    <rect
       transform="matrix(0,-1,-1,0,0,0)"
       y="9.7537365"
       x="46.839634"
       height="4.1265807"
       width="2.1258144"
       id="rect3294"
       style="fill:#32353c;fill-opacity:1;fill-rule:evenodd;stroke:none;stroke-width:3.54330707;stroke-miterlimit:4;stroke-dasharray:none;stroke-opacity:1" />
    <rect
       transform="matrix(0,-1,-1,0,0,0)"
       y="9.7537365"
       x="49.824085"
       height="4.1265807"
       width="2.1258144"
       id="rect3296"
       style="fill:#32353c;fill-opacity:1;fill-rule:evenodd;stroke:none;stroke-width:3.54330707;stroke-miterlimit:4;stroke-dasharray:none;stroke-opacity:1" />
    <rect
       transform="matrix(0,-1,-1,0,0,0)"
       y="9.7537365"
       x="55.792988"
       height="4.1265807"
       width="2.1258144"
       id="rect3298"
       style="fill:#32353c;fill-opacity:1;fill-rule:evenodd;stroke:none;stroke-width:3.54330707;stroke-miterlimit:4;stroke-dasharray:none;stroke-opacity:1" />
    <rect
       transform="matrix(0,-1,-1,0,0,0)"
       y="9.7537365"
       x="58.777439"
       height="4.1265807"
       width="2.1258144"
       id="rect3300"
       style="fill:#32353c;fill-opacity:1;fill-rule:evenodd;stroke:none;stroke-width:3.54330707;stroke-miterlimit:4;stroke-dasharray:none;stroke-opacity:1" />
    <rect
       transform="matrix(0,-1,-1,0,0,0)"
       y="9.7537365"
       x="61.76189"
       height="4.1265807"
       width="2.1258144"
       id="rect3302"
       style="fill:#32353c;fill-opacity:1;fill-rule:evenodd;stroke:none;stroke-width:3.54330707;stroke-miterlimit:4;stroke-dasharray:none;stroke-opacity:1" />
    <rect
       transform="matrix(0,-1,-1,0,0,0)"
       y="9.7537365"
       x="-42.69392"
       height="4.1265807"
       width="2.1258144"
       id="rect3508"
       style="fill:#32353c;fill-opacity:1;fill-rule:evenodd;stroke:none;stroke-width:3.54330707;stroke-miterlimit:4;stroke-dasharray:none;stroke-opacity:1" />
    <rect
       transform="matrix(0,-1,-1,0,0,0)"
       y="9.7537365"
       x="-39.709469"
       height="4.1265807"
       width="2.1258144"
       id="rect3510"
       style="fill:#32353c;fill-opacity:1;fill-rule:evenodd;stroke:none;stroke-width:3.54330707;stroke-miterlimit:4;stroke-dasharray:none;stroke-opacity:1" />
    <rect
       transform="matrix(0,-1,-1,0,0,0)"
       y="9.7537365"
       x="-36.725018"
       height="4.1265807"
       width="2.1258144"
       id="rect3512"
       style="fill:#32353c;fill-opacity:1;fill-rule:evenodd;stroke:none;stroke-width:3.54330707;stroke-miterlimit:4;stroke-dasharray:none;stroke-opacity:1" />
    <rect
       transform="matrix(0,-1,-1,0,0,0)"
       y="9.7537365"
       x="-33.740566"
       height="4.1265807"
       width="2.1258144"
       id="rect3514"
       style="fill:#32353c;fill-opacity:1;fill-rule:evenodd;stroke:none;stroke-width:3.54330707;stroke-miterlimit:4;stroke-dasharray:none;stroke-opacity:1" />
    <rect
       transform="matrix(0,-1,-1,0,0,0)"
       y="9.7537365"
       x="-30.756115"
       height="4.1265807"
       width="2.1258144"
       id="rect3516"
       style="fill:#32353c;fill-opacity:1;fill-rule:evenodd;stroke:none;stroke-width:3.54330707;stroke-miterlimit:4;stroke-dasharray:none;stroke-opacity:1" />
    <rect
       transform="matrix(0,-1,-1,0,0,0)"
       y="9.7537365"
       x="-27.771662"
       height="4.1265807"
       width="2.1258144"
       id="rect3518"
       style="fill:#32353c;fill-opacity:1;fill-rule:evenodd;stroke:none;stroke-width:3.54330707;stroke-miterlimit:4;stroke-dasharray:none;stroke-opacity:1" />
    <rect
       transform="matrix(0,-1,-1,0,0,0)"
       y="9.7537365"
       x="52.808537"
       height="4.1265807"
       width="2.1258144"
       id="rect3520"
       style="fill:#32353c;fill-opacity:1;fill-rule:evenodd;stroke:none;stroke-width:3.54330707;stroke-miterlimit:4;stroke-dasharray:none;stroke-opacity:1" />
  </g>
  <rect
     style="fill:#000000;fill-opacity:1;fill-rule:evenodd;stroke:none;stroke-width:3.54330707;stroke-miterlimit:4;stroke-dasharray:none;stroke-opacity:1"
     id="rect3678"
     width="6.3774433"
     height="106.58"
     x="13.724007"
     y="0.00081132411" />
  <rect
     style="fill:#3a3e48;fill-opacity:1;fill-rule:evenodd;stroke:none;stroke-width:3.54330707;stroke-miterlimit:4;stroke-dasharray:none;stroke-opacity:1"
     id="rect3602"
     width="106.47845"
     height="4.2751846"
     x="-106.53003"
     y="-19.050322"
     transform="matrix(0,-1,-1,0,0,0)" />
  <g
     id="g3604"
     transform="translate(28.729756,63.887705)"
     style="fill:#32353c;fill-opacity:1">
    <rect
       transform="matrix(0,-1,-1,0,0,0)"
       y="9.7537365"
       x="-24.78721"
       height="4.1265807"
       width="2.1258144"
       id="rect3606"
       style="fill:#32353c;fill-opacity:1;fill-rule:evenodd;stroke:none;stroke-width:3.54330707;stroke-miterlimit:4;stroke-dasharray:none;stroke-opacity:1" />
    <rect
       transform="matrix(0,-1,-1,0,0,0)"
       y="9.7537365"
       x="-21.802757"
       height="4.1265807"
       width="2.1258144"
       id="rect3608"
       style="fill:#32353c;fill-opacity:1;fill-rule:evenodd;stroke:none;stroke-width:3.54330707;stroke-miterlimit:4;stroke-dasharray:none;stroke-opacity:1" />
    <rect
       transform="matrix(0,-1,-1,0,0,0)"
       y="9.7537365"
       x="-18.818308"
       height="4.1265807"
       width="2.1258144"
       id="rect3610"
       style="fill:#32353c;fill-opacity:1;fill-rule:evenodd;stroke:none;stroke-width:3.54330707;stroke-miterlimit:4;stroke-dasharray:none;stroke-opacity:1" />
    <rect
       transform="matrix(0,-1,-1,0,0,0)"
       y="9.7537365"
       x="-15.833855"
       height="4.1265807"
       width="2.1258144"
       id="rect3612"
       style="fill:#32353c;fill-opacity:1;fill-rule:evenodd;stroke:none;stroke-width:3.54330707;stroke-miterlimit:4;stroke-dasharray:none;stroke-opacity:1" />
    <rect
       transform="matrix(0,-1,-1,0,0,0)"
       y="9.7537365"
       x="-12.849403"
       height="4.1265807"
       width="2.1258144"
       id="rect3614"
       style="fill:#32353c;fill-opacity:1;fill-rule:evenodd;stroke:none;stroke-width:3.54330707;stroke-miterlimit:4;stroke-dasharray:none;stroke-opacity:1" />
    <rect
       transform="matrix(0,-1,-1,0,0,0)"
       y="9.7537365"
       x="-9.864953"
       height="4.1265807"
       width="2.1258144"
       id="rect3616"
       style="fill:#32353c;fill-opacity:1;fill-rule:evenodd;stroke:none;stroke-width:3.54330707;stroke-miterlimit:4;stroke-dasharray:none;stroke-opacity:1" />
    <rect
       transform="matrix(0,-1,-1,0,0,0)"
       y="9.7537365"
       x="-6.8804989"
       height="4.1265807"
       width="2.1258144"
       id="rect3618"
       style="fill:#32353c;fill-opacity:1;fill-rule:evenodd;stroke:none;stroke-width:3.54330707;stroke-miterlimit:4;stroke-dasharray:none;stroke-opacity:1" />
    <rect
       transform="matrix(0,-1,-1,0,0,0)"
       y="9.7537365"
       x="-3.8960471"
       height="4.1265807"
       width="2.1258144"
       id="rect3620"
       style="fill:#32353c;fill-opacity:1;fill-rule:evenodd;stroke:none;stroke-width:3.54330707;stroke-miterlimit:4;stroke-dasharray:none;stroke-opacity:1" />
    <rect
       transform="matrix(0,-1,-1,0,0,0)"
       y="9.7537365"
       x="-0.9115954"
       height="4.1265807"
       width="2.1258144"
       id="rect3622"
       style="fill:#32353c;fill-opacity:1;fill-rule:evenodd;stroke:none;stroke-width:3.54330707;stroke-miterlimit:4;stroke-dasharray:none;stroke-opacity:1" />
    <rect
       transform="matrix(0,-1,-1,0,0,0)"
       y="9.7537365"
       x="2.0728567"
       height="4.1265807"
       width="2.1258144"
       id="rect3624"
       style="fill:#32353c;fill-opacity:1;fill-rule:evenodd;stroke:none;stroke-width:3.54330707;stroke-miterlimit:4;stroke-dasharray:none;stroke-opacity:1" />
    <rect
       transform="matrix(0,-1,-1,0,0,0)"
       y="9.7537365"
       x="5.0573082"
       height="4.1265807"
       width="2.1258144"
       id="rect3626"
       style="fill:#32353c;fill-opacity:1;fill-rule:evenodd;stroke:none;stroke-width:3.54330707;stroke-miterlimit:4;stroke-dasharray:none;stroke-opacity:1" />
    <rect
       transform="matrix(0,-1,-1,0,0,0)"
       y="9.7537365"
       x="8.0417604"
       height="4.1265807"
       width="2.1258144"
       id="rect3628"
       style="fill:#32353c;fill-opacity:1;fill-rule:evenodd;stroke:none;stroke-width:3.54330707;stroke-miterlimit:4;stroke-dasharray:none;stroke-opacity:1" />
    <rect
       transform="matrix(0,-1,-1,0,0,0)"
       y="9.7537365"
       x="11.02621"
       height="4.1265807"
       width="2.1258144"
       id="rect3630"
       style="fill:#32353c;fill-opacity:1;fill-rule:evenodd;stroke:none;stroke-width:3.54330707;stroke-miterlimit:4;stroke-dasharray:none;stroke-opacity:1" />
    <rect
       transform="matrix(0,-1,-1,0,0,0)"
       y="9.7537365"
       x="14.010662"
       height="4.1265807"
       width="2.1258144"
       id="rect3632"
       style="fill:#32353c;fill-opacity:1;fill-rule:evenodd;stroke:none;stroke-width:3.54330707;stroke-miterlimit:4;stroke-dasharray:none;stroke-opacity:1" />
    <rect
       transform="matrix(0,-1,-1,0,0,0)"
       y="9.7537365"
       x="16.995113"
       height="4.1265807"
       width="2.1258144"
       id="rect3634"
       style="fill:#32353c;fill-opacity:1;fill-rule:evenodd;stroke:none;stroke-width:3.54330707;stroke-miterlimit:4;stroke-dasharray:none;stroke-opacity:1" />
    <rect
       transform="matrix(0,-1,-1,0,0,0)"
       y="9.7537365"
       x="19.979565"
       height="4.1265807"
       width="2.1258144"
       id="rect3636"
       style="fill:#32353c;fill-opacity:1;fill-rule:evenodd;stroke:none;stroke-width:3.54330707;stroke-miterlimit:4;stroke-dasharray:none;stroke-opacity:1" />
    <rect
       transform="matrix(0,-1,-1,0,0,0)"
       y="9.7537365"
       x="22.964018"
       height="4.1265807"
       width="2.1258144"
       id="rect3638"
       style="fill:#32353c;fill-opacity:1;fill-rule:evenodd;stroke:none;stroke-width:3.54330707;stroke-miterlimit:4;stroke-dasharray:none;stroke-opacity:1" />
    <rect
       transform="matrix(0,-1,-1,0,0,0)"
       y="9.7537365"
       x="25.948471"
       height="4.1265807"
       width="2.1258144"
       id="rect3640"
       style="fill:#32353c;fill-opacity:1;fill-rule:evenodd;stroke:none;stroke-width:3.54330707;stroke-miterlimit:4;stroke-dasharray:none;stroke-opacity:1" />
    <rect
       transform="matrix(0,-1,-1,0,0,0)"
       y="9.7537365"
       x="28.932922"
       height="4.1265807"
       width="2.1258144"
       id="rect3642"
       style="fill:#32353c;fill-opacity:1;fill-rule:evenodd;stroke:none;stroke-width:3.54330707;stroke-miterlimit:4;stroke-dasharray:none;stroke-opacity:1" />
    <rect
       transform="matrix(0,-1,-1,0,0,0)"
       y="9.7537365"
       x="31.917372"
       height="4.1265807"
       width="2.1258144"
       id="rect3644"
       style="fill:#32353c;fill-opacity:1;fill-rule:evenodd;stroke:none;stroke-width:3.54330707;stroke-miterlimit:4;stroke-dasharray:none;stroke-opacity:1" />
    <rect
       transform="matrix(0,-1,-1,0,0,0)"
       y="9.7537365"
       x="34.901825"
       height="4.1265807"
       width="2.1258144"
       id="rect3646"
       style="fill:#32353c;fill-opacity:1;fill-rule:evenodd;stroke:none;stroke-width:3.54330707;stroke-miterlimit:4;stroke-dasharray:none;stroke-opacity:1" />
    <rect
       transform="matrix(0,-1,-1,0,0,0)"
       y="9.7537365"
       x="37.886276"
       height="4.1265807"
       width="2.1258144"
       id="rect3648"
       style="fill:#32353c;fill-opacity:1;fill-rule:evenodd;stroke:none;stroke-width:3.54330707;stroke-miterlimit:4;stroke-dasharray:none;stroke-opacity:1" />
    <rect
       transform="matrix(0,-1,-1,0,0,0)"
       y="9.7537365"
       x="40.870731"
       height="4.1265807"
       width="2.1258144"
       id="rect3650"
       style="fill:#32353c;fill-opacity:1;fill-rule:evenodd;stroke:none;stroke-width:3.54330707;stroke-miterlimit:4;stroke-dasharray:none;stroke-opacity:1" />
    <rect
       transform="matrix(0,-1,-1,0,0,0)"
       y="9.7537365"
       x="43.855183"
       height="4.1265807"
       width="2.1258144"
       id="rect3652"
       style="fill:#32353c;fill-opacity:1;fill-rule:evenodd;stroke:none;stroke-width:3.54330707;stroke-miterlimit:4;stroke-dasharray:none;stroke-opacity:1" />
    <rect
       transform="matrix(0,-1,-1,0,0,0)"
       y="9.7537365"
       x="46.839634"
       height="4.1265807"
       width="2.1258144"
       id="rect3654"
       style="fill:#32353c;fill-opacity:1;fill-rule:evenodd;stroke:none;stroke-width:3.54330707;stroke-miterlimit:4;stroke-dasharray:none;stroke-opacity:1" />
    <rect
       transform="matrix(0,-1,-1,0,0,0)"
       y="9.7537365"
       x="49.824085"
       height="4.1265807"
       width="2.1258144"
       id="rect3656"
       style="fill:#32353c;fill-opacity:1;fill-rule:evenodd;stroke:none;stroke-width:3.54330707;stroke-miterlimit:4;stroke-dasharray:none;stroke-opacity:1" />
    <rect
       transform="matrix(0,-1,-1,0,0,0)"
       y="9.7537365"
       x="55.792988"
       height="4.1265807"
       width="2.1258144"
       id="rect3658"
       style="fill:#32353c;fill-opacity:1;fill-rule:evenodd;stroke:none;stroke-width:3.54330707;stroke-miterlimit:4;stroke-dasharray:none;stroke-opacity:1" />
    <rect
       transform="matrix(0,-1,-1,0,0,0)"
       y="9.7537365"
       x="58.777439"
       height="4.1265807"
       width="2.1258144"
       id="rect3660"
       style="fill:#32353c;fill-opacity:1;fill-rule:evenodd;stroke:none;stroke-width:3.54330707;stroke-miterlimit:4;stroke-dasharray:none;stroke-opacity:1" />
    <rect
       transform="matrix(0,-1,-1,0,0,0)"
       y="9.7537365"
       x="61.76189"
       height="4.1265807"
       width="2.1258144"
       id="rect3662"
       style="fill:#32353c;fill-opacity:1;fill-rule:evenodd;stroke:none;stroke-width:3.54330707;stroke-miterlimit:4;stroke-dasharray:none;stroke-opacity:1" />
    <rect
       transform="matrix(0,-1,-1,0,0,0)"
       y="9.7537365"
       x="-42.69392"
       height="4.1265807"
       width="2.1258144"
       id="rect3664"
       style="fill:#32353c;fill-opacity:1;fill-rule:evenodd;stroke:none;stroke-width:3.54330707;stroke-miterlimit:4;stroke-dasharray:none;stroke-opacity:1" />
    <rect
       transform="matrix(0,-1,-1,0,0,0)"
       y="9.7537365"
       x="-39.709469"
       height="4.1265807"
       width="2.1258144"
       id="rect3666"
       style="fill:#32353c;fill-opacity:1;fill-rule:evenodd;stroke:none;stroke-width:3.54330707;stroke-miterlimit:4;stroke-dasharray:none;stroke-opacity:1" />
    <rect
       transform="matrix(0,-1,-1,0,0,0)"
       y="9.7537365"
       x="-36.725018"
       height="4.1265807"
       width="2.1258144"
       id="rect3668"
       style="fill:#32353c;fill-opacity:1;fill-rule:evenodd;stroke:none;stroke-width:3.54330707;stroke-miterlimit:4;stroke-dasharray:none;stroke-opacity:1" />
    <rect
       transform="matrix(0,-1,-1,0,0,0)"
       y="9.7537365"
       x="-33.740566"
       height="4.1265807"
       width="2.1258144"
       id="rect3670"
       style="fill:#32353c;fill-opacity:1;fill-rule:evenodd;stroke:none;stroke-width:3.54330707;stroke-miterlimit:4;stroke-dasharray:none;stroke-opacity:1" />
    <rect
       transform="matrix(0,-1,-1,0,0,0)"
       y="9.7537365"
       x="-30.756115"
       height="4.1265807"
       width="2.1258144"
       id="rect3672"
       style="fill:#32353c;fill-opacity:1;fill-rule:evenodd;stroke:none;stroke-width:3.54330707;stroke-miterlimit:4;stroke-dasharray:none;stroke-opacity:1" />
    <rect
       transform="matrix(0,-1,-1,0,0,0)"
       y="9.7537365"
       x="-27.771662"
       height="4.1265807"
       width="2.1258144"
       id="rect3674"
       style="fill:#32353c;fill-opacity:1;fill-rule:evenodd;stroke:none;stroke-width:3.54330707;stroke-miterlimit:4;stroke-dasharray:none;stroke-opacity:1" />
    <rect
       transform="matrix(0,-1,-1,0,0,0)"
       y="9.7537365"
       x="52.808537"
       height="4.1265807"
       width="2.1258144"
       id="rect3676"
       style="fill:#32353c;fill-opacity:1;fill-rule:evenodd;stroke:none;stroke-width:3.54330707;stroke-miterlimit:4;stroke-dasharray:none;stroke-opacity:1" />
  </g>
  <rect
     style="fill:#000000;fill-opacity:1;fill-rule:evenodd;stroke:none;stroke-width:3.54330707;stroke-miterlimit:4;stroke-dasharray:none;stroke-opacity:1"
     id="rect3844"
     width="0.8753354"
     height="106.58"
     x="11.06674"
     y="0.00081132411" />
  <rect
     style="fill:#b3b3b3;fill-opacity:1;fill-rule:evenodd;stroke:none;stroke-width:3.54330707;stroke-miterlimit:4;stroke-dasharray:none;stroke-opacity:1"
     id="rect6244"
     width="0.8753354"
     height="2.0478001"
     x="-27.211655"
     y="0.87462759"
     transform="matrix(0,-1,1,0,0,0)" />
  <rect
     style="fill:#b3b3b3;fill-opacity:1;fill-rule:evenodd;stroke:none;stroke-width:3.54330707;stroke-miterlimit:4;stroke-dasharray:none;stroke-opacity:1"
     id="rect6246"
     width="0.8753354"
     height="2.0478001"
     x="-53.814201"
     y="0.87462759"
     transform="matrix(0,-1,1,0,0,0)" />
  <rect
     style="fill:#b3b3b3;fill-opacity:1;fill-rule:evenodd;stroke:none;stroke-width:3.54330707;stroke-miterlimit:4;stroke-dasharray:none;stroke-opacity:1"
     id="rect6248"
     width="0.8753354"
     height="2.0478001"
     x="-80.416748"
     y="0.87462759"
     transform="matrix(0,-1,1,0,0,0)" />
  <g
     id="g6299"
     transform="translate(32,2)">
    <path
       id="text6252"
       d="M 25.208998,-2.4614412 C 25.072278,-2.4614393 24.969251,-2.386244 24.899916,-2.2358553 C 24.830579,-2.0864396 24.795911,-1.8613422 24.795912,-1.5605623 C 24.795911,-1.2607569 24.830579,-1.0356594 24.899916,-0.88526937 C 24.969251,-0.73585504 25.072278,-0.66114809 25.208998,-0.66114828 C 25.346692,-0.66114809 25.449719,-0.73585504 25.51808,-0.88526937 C 25.587414,-1.0356594 25.622082,-1.2607569 25.622084,-1.5605623 C 25.622082,-1.8613422 25.587414,-2.0864396 25.51808,-2.2358553 C 25.449719,-2.386244 25.346692,-2.4614393 25.208998,-2.4614412 M 25.208998,-2.6958162 C 25.4297,-2.695814 25.598157,-2.5986462 25.714369,-2.4043123 C 25.830578,-2.2109512 25.888684,-1.9297015 25.888685,-1.5605623 C 25.888684,-1.1923976 25.830578,-0.91114784 25.714369,-0.71681234 C 25.598157,-0.52345291 25.4297,-0.42677332 25.208998,-0.42677328 C 24.988294,-0.42677332 24.819837,-0.52345291 24.703627,-0.71681234 C 24.587415,-0.91114784 24.52931,-1.1923976 24.52931,-1.5605623 C 24.52931,-1.9297015 24.587415,-2.2109512 24.703627,-2.4043123 C 24.819837,-2.5986462 24.988294,-2.695814 25.208998,-2.6958162"
       style="font-size:3px;font-style:normal;font-variant:normal;font-weight:normal;font-stretch:condensed;text-align:start;line-height:50%;writing-mode:lr-tb;text-anchor:start;fill:#b3b3b3;fill-opacity:1;stroke:none;stroke-width:1px;stroke-linecap:butt;stroke-linejoin:miter;stroke-opacity:1;font-family:DejaVu Sans"
       transform="matrix(0,1,-1,0,0,0)" />
    <path
       id="text6256"
       d="M 48.371353,-1.4111483 L 49.081802,-1.4111483 L 49.081802,-1.1709139 L 48.371353,-1.1709139 L 48.371353,-1.4111483 M 49.730728,-0.71827719 L 50.659439,-0.71827719 L 50.659439,-0.46925375 L 49.409927,-0.46925375 L 49.409927,-0.71827719 C 49.510513,-0.83448776 49.648208,-0.99024932 49.823013,-1.1855623 C 49.997817,-1.3818505 50.10768,-1.5083152 50.152603,-1.5649569 C 50.237563,-1.671401 50.296645,-1.7612446 50.329849,-1.8344881 C 50.364028,-1.9087054 50.381118,-1.9814593 50.381119,-2.0527498 C 50.381118,-2.1689591 50.344497,-2.2636855 50.271255,-2.3369295 C 50.198012,-2.4101698 50.102309,-2.4467908 49.984146,-2.4467928 C 49.901138,-2.4467908 49.813247,-2.4306776 49.720474,-2.398453 C 49.6277,-2.3662245 49.528579,-2.3173964 49.423111,-2.2519686 L 49.423111,-2.5507967 C 49.530533,-2.5986462 49.63063,-2.6347789 49.723404,-2.6591952 C 49.817153,-2.683607 49.902602,-2.695814 49.979752,-2.6958162 C 50.183852,-2.695814 50.34645,-2.6391735 50.467545,-2.5258944 C 50.588637,-2.4126112 50.649184,-2.2612441 50.649185,-2.0717928 C 50.649184,-1.9819475 50.634047,-1.8964984 50.603775,-1.8154452 C 50.5735,-1.7353658 50.518324,-1.6406393 50.438248,-1.5312655 C 50.415786,-1.5029441 50.345473,-1.420913 50.22731,-1.2851717 C 50.110122,-1.1504054 49.944595,-0.96144076 49.730728,-0.71827719 M 51.787369,-2.4614412 C 51.650649,-2.4614393 51.547622,-2.386244 51.478287,-2.2358553 C 51.40895,-2.0864396 51.374282,-1.8613422 51.374283,-1.5605623 C 51.374282,-1.2607569 51.40895,-1.0356594 51.478287,-0.88526937 C 51.547622,-0.73585504 51.650649,-0.66114809 51.787369,-0.66114828 C 51.925063,-0.66114809 52.02809,-0.73585504 52.096451,-0.88526937 C 52.165786,-1.0356594 52.200453,-1.2607569 52.200455,-1.5605623 C 52.200453,-1.8613422 52.165786,-2.0864396 52.096451,-2.2358553 C 52.02809,-2.386244 51.925063,-2.4614393 51.787369,-2.4614412 M 51.787369,-2.6958162 C 52.008071,-2.695814 52.176528,-2.5986462 52.29274,-2.4043123 C 52.408949,-2.2109512 52.467055,-1.9297015 52.467056,-1.5605623 C 52.467055,-1.1923976 52.408949,-0.91114784 52.29274,-0.71681234 C 52.176528,-0.52345291 52.008071,-0.42677332 51.787369,-0.42677328 C 51.566665,-0.42677332 51.398208,-0.52345291 51.281998,-0.71681234 C 51.165787,-0.91114784 51.107681,-1.1923976 51.107681,-1.5605623 C 51.107681,-1.9297015 51.165787,-2.2109512 51.281998,-2.4043123 C 51.398208,-2.5986462 51.566665,-2.695814 51.787369,-2.6958162"
       style="font-size:3px;font-style:normal;font-variant:normal;font-weight:normal;font-stretch:condensed;text-align:start;line-height:50%;writing-mode:lr-tb;text-anchor:start;fill:#b3b3b3;fill-opacity:1;stroke:none;stroke-width:1px;stroke-linecap:butt;stroke-linejoin:miter;stroke-opacity:1;font-family:DejaVu Sans"
       transform="matrix(0,1,-1,0,0,0)" />
    <path
       id="text6262"
       d="M 74.949722,-1.4111483 L 75.660172,-1.4111483 L 75.660172,-1.1709139 L 74.949722,-1.1709139 L 74.949722,-1.4111483 M 76.811539,-2.398453 L 76.139175,-1.2309725 L 76.811539,-1.2309725 L 76.811539,-2.398453 M 76.741226,-2.6562655 L 77.076675,-2.6562655 L 77.076675,-1.2309725 L 77.356461,-1.2309725 L 77.356461,-0.98487875 L 77.076675,-0.98487875 L 77.076675,-0.46925375 L 76.811539,-0.46925375 L 76.811539,-0.98487875 L 75.922379,-0.98487875 L 75.922379,-1.2705233 L 76.741226,-2.6562655 M 78.365738,-2.4614412 C 78.229018,-2.4614393 78.125991,-2.386244 78.056656,-2.2358553 C 77.987319,-2.0864396 77.952652,-1.8613422 77.952652,-1.5605623 C 77.952652,-1.2607569 77.987319,-1.0356594 78.056656,-0.88526937 C 78.125991,-0.73585504 78.229018,-0.66114809 78.365738,-0.66114828 C 78.503432,-0.66114809 78.606459,-0.73585504 78.67482,-0.88526937 C 78.744155,-1.0356594 78.778823,-1.2607569 78.778824,-1.5605623 C 78.778823,-1.8613422 78.744155,-2.0864396 78.67482,-2.2358553 C 78.606459,-2.386244 78.503432,-2.4614393 78.365738,-2.4614412 M 78.365738,-2.6958162 C 78.58644,-2.695814 78.754897,-2.5986462 78.871109,-2.4043123 C 78.987318,-2.2109512 79.045424,-1.9297015 79.045425,-1.5605623 C 79.045424,-1.1923976 78.987318,-0.91114784 78.871109,-0.71681234 C 78.754897,-0.52345291 78.58644,-0.42677332 78.365738,-0.42677328 C 78.145034,-0.42677332 77.976577,-0.52345291 77.860367,-0.71681234 C 77.744156,-0.91114784 77.68605,-1.1923976 77.68605,-1.5605623 C 77.68605,-1.9297015 77.744156,-2.2109512 77.860367,-2.4043123 C 77.976577,-2.5986462 78.145034,-2.695814 78.365738,-2.6958162"
       style="font-size:3px;font-style:normal;font-variant:normal;font-weight:normal;font-stretch:condensed;text-align:start;line-height:50%;writing-mode:lr-tb;text-anchor:start;fill:#b3b3b3;fill-opacity:1;stroke:none;stroke-width:1px;stroke-linecap:butt;stroke-linejoin:miter;stroke-opacity:1;font-family:DejaVu Sans"
       transform="matrix(0,1,-1,0,0,0)" />
  </g>
  <g
     id="g6276"
     transform="translate(27.560458,1.2840612)">
    <text
       transform="matrix(0,1,-1,0,0,0)"
       sodipodi:linespacing="50%"
       id="text6278"
       y="-0.46925375"
       x="24.350599"
       style="font-size:3px;font-style:normal;font-variant:normal;font-weight:normal;font-stretch:condensed;text-align:start;line-height:50%;writing-mode:lr-tb;text-anchor:start;fill:#b3b3b3;fill-opacity:1;stroke:none;stroke-width:1px;stroke-linecap:butt;stroke-linejoin:miter;stroke-opacity:1;font-family:DejaVu Sans"
       xml:space="preserve"><tspan
         y="-0.46925375"
         x="24.350599"
         id="tspan6280"
         sodipodi:role="line">0</tspan></text>
    <text
       transform="matrix(0,1,-1,0,0,0)"
       sodipodi:linespacing="50%"
       id="text6282"
       y="-0.46925375"
       x="48.239517"
       style="font-size:3px;font-style:normal;font-variant:normal;font-weight:normal;font-stretch:condensed;text-align:start;line-height:50%;writing-mode:lr-tb;text-anchor:start;fill:#b3b3b3;fill-opacity:1;stroke:none;stroke-width:1px;stroke-linecap:butt;stroke-linejoin:miter;stroke-opacity:1;font-family:DejaVu Sans"
       xml:space="preserve"><tspan
         y="-0.46925375"
         x="48.239517"
         id="tspan6284"
         sodipodi:role="line">-20</tspan></text>
    <text
       transform="matrix(0,1,-1,0,0,0)"
       sodipodi:linespacing="50%"
       id="text6286"
       y="-0.46925375"
       x="74.817886"
       style="font-size:3px;font-style:normal;font-variant:normal;font-weight:normal;font-stretch:condensed;text-align:start;line-height:50%;writing-mode:lr-tb;text-anchor:start;fill:#b3b3b3;fill-opacity:1;stroke:none;stroke-width:1px;stroke-linecap:butt;stroke-linejoin:miter;stroke-opacity:1;font-family:DejaVu Sans"
       xml:space="preserve"><tspan
         y="-0.46925375"
         x="74.817886"
         id="tspan6288"
         sodipodi:role="line">-40</tspan></text>
  </g>
</svg>
