<?xml version="1.0" encoding="UTF-8" standalone="no"?>
<!-- Created with Inkscape (http://www.inkscape.org/) -->
<svg
   xmlns:dc="http://purl.org/dc/elements/1.1/"
   xmlns:cc="http://web.resource.org/cc/"
   xmlns:rdf="http://www.w3.org/1999/02/22-rdf-syntax-ns#"
   xmlns:svg="http://www.w3.org/2000/svg"
   xmlns="http://www.w3.org/2000/svg"
   xmlns:sodipodi="http://sodipodi.sourceforge.net/DTD/sodipodi-0.dtd"
   xmlns:inkscape="http://www.inkscape.org/namespaces/inkscape"
   id="svg2"
   sodipodi:version="0.32"
   inkscape:version="0.45.1"
   width="11"
   height="500"
   version="1.0"
   sodipodi:docbase="/home/sbrunner/workspace/livemix/data"
   sodipodi:docname="fader_background_meter.svg"
   inkscape:output_extension="org.inkscape.output.svg.inkscape">
  <metadata
     id="metadata7">
    <rdf:RDF>
      <cc:Work
         rdf:about="">
        <dc:format>image/svg+xml</dc:format>
        <dc:type
           rdf:resource="http://purl.org/dc/dcmitype/StillImage" />
      </cc:Work>
    </rdf:RDF>
  </metadata>
  <defs
     id="defs5" />
  <sodipodi:namedview
     inkscape:window-height="1122"
     inkscape:window-width="1600"
     inkscape:pageshadow="2"
     inkscape:pageopacity="0.0"
     guidetolerance="10.0"
     gridtolerance="10.0"
     objecttolerance="10.0"
     borderopacity="1.0"
     bordercolor="#666666"
     pagecolor="#ffffff"
     id="base"
     inkscape:zoom="13.482658"
     inkscape:cx="12.197592"
     inkscape:cy="470.93312"
     inkscape:window-x="0"
     inkscape:window-y="0"
     inkscape:current-layer="svg2"
     height="500px"
     width="11px"
     borderlayer="true" />
  <rect
     style="fill:#000000;fill-opacity:1;fill-rule:evenodd;stroke:none;stroke-width:3.54330707;stroke-miterlimit:4;stroke-dasharray:none;stroke-opacity:1"
     id="rect3758"
     width="11"
     height="499.99237"
     x="0"
     y="0.0076293945" />
  <rect
     style="fill:#3a3e48;fill-opacity:1;fill-rule:evenodd;stroke:none;stroke-width:3.54330707;stroke-miterlimit:4;stroke-dasharray:none;stroke-opacity:1"
     id="rect2273"
     width="500"
     height="4"
     x="-500"
     y="-5"
     transform="matrix(0,-1,-1,0,0,0)" />
  <g
     id="g3522"
     transform="matrix(0.9693255,0,0,4.6912402,14.454545,299.71257)"
     style="fill:#32353c;fill-opacity:1">
    <rect
       transform="matrix(0,-1,-1,0,0,0)"
       y="9.7537365"
       x="-24.78721"
       height="4.1265807"
       width="2.1258144"
       id="rect3246"
       style="fill:#32353c;fill-opacity:1;fill-rule:evenodd;stroke:none;stroke-width:3.54330707;stroke-miterlimit:4;stroke-dasharray:none;stroke-opacity:1" />
    <rect
       transform="matrix(0,-1,-1,0,0,0)"
       y="9.7537365"
       x="-21.802757"
       height="4.1265807"
       width="2.1258144"
       id="rect3248"
       style="fill:#32353c;fill-opacity:1;fill-rule:evenodd;stroke:none;stroke-width:3.54330707;stroke-miterlimit:4;stroke-dasharray:none;stroke-opacity:1" />
    <rect
       transform="matrix(0,-1,-1,0,0,0)"
       y="9.7537365"
       x="-18.818308"
       height="4.1265807"
       width="2.1258144"
       id="rect3250"
       style="fill:#32353c;fill-opacity:1;fill-rule:evenodd;stroke:none;stroke-width:3.54330707;stroke-miterlimit:4;stroke-dasharray:none;stroke-opacity:1" />
    <rect
       transform="matrix(0,-1,-1,0,0,0)"
       y="9.7537365"
       x="-15.833855"
       height="4.1265807"
       width="2.1258144"
       id="rect3252"
       style="fill:#32353c;fill-opacity:1;fill-rule:evenodd;stroke:none;stroke-width:3.54330707;stroke-miterlimit:4;stroke-dasharray:none;stroke-opacity:1" />
    <rect
       transform="matrix(0,-1,-1,0,0,0)"
       y="9.7537365"
       x="-12.849403"
       height="4.1265807"
       width="2.1258144"
       id="rect3254"
       style="fill:#32353c;fill-opacity:1;fill-rule:evenodd;stroke:none;stroke-width:3.54330707;stroke-miterlimit:4;stroke-dasharray:none;stroke-opacity:1" />
    <rect
       transform="matrix(0,-1,-1,0,0,0)"
       y="9.7537365"
       x="-9.864953"
       height="4.1265807"
       width="2.1258144"
       id="rect3256"
       style="fill:#32353c;fill-opacity:1;fill-rule:evenodd;stroke:none;stroke-width:3.54330707;stroke-miterlimit:4;stroke-dasharray:none;stroke-opacity:1" />
    <rect
       transform="matrix(0,-1,-1,0,0,0)"
       y="9.7537365"
       x="-6.8804989"
       height="4.1265807"
       width="2.1258144"
       id="rect3258"
       style="fill:#32353c;fill-opacity:1;fill-rule:evenodd;stroke:none;stroke-width:3.54330707;stroke-miterlimit:4;stroke-dasharray:none;stroke-opacity:1" />
    <rect
       transform="matrix(0,-1,-1,0,0,0)"
       y="9.7537365"
       x="-3.8960471"
       height="4.1265807"
       width="2.1258144"
       id="rect3260"
       style="fill:#32353c;fill-opacity:1;fill-rule:evenodd;stroke:none;stroke-width:3.54330707;stroke-miterlimit:4;stroke-dasharray:none;stroke-opacity:1" />
    <rect
       transform="matrix(0,-1,-1,0,0,0)"
       y="9.7537365"
       x="-0.9115954"
       height="4.1265807"
       width="2.1258144"
       id="rect3262"
       style="fill:#32353c;fill-opacity:1;fill-rule:evenodd;stroke:none;stroke-width:3.54330707;stroke-miterlimit:4;stroke-dasharray:none;stroke-opacity:1" />
    <rect
       transform="matrix(0,-1,-1,0,0,0)"
       y="9.7537365"
       x="2.0728567"
       height="4.1265807"
       width="2.1258144"
       id="rect3264"
       style="fill:#32353c;fill-opacity:1;fill-rule:evenodd;stroke:none;stroke-width:3.54330707;stroke-miterlimit:4;stroke-dasharray:none;stroke-opacity:1" />
    <rect
       transform="matrix(0,-1,-1,0,0,0)"
       y="9.7537365"
       x="5.0573082"
       height="4.1265807"
       width="2.1258144"
       id="rect3266"
       style="fill:#32353c;fill-opacity:1;fill-rule:evenodd;stroke:none;stroke-width:3.54330707;stroke-miterlimit:4;stroke-dasharray:none;stroke-opacity:1" />
    <rect
       transform="matrix(0,-1,-1,0,0,0)"
       y="9.7537365"
       x="8.0417604"
       height="4.1265807"
       width="2.1258144"
       id="rect3268"
       style="fill:#32353c;fill-opacity:1;fill-rule:evenodd;stroke:none;stroke-width:3.54330707;stroke-miterlimit:4;stroke-dasharray:none;stroke-opacity:1" />
    <rect
       transform="matrix(0,-1,-1,0,0,0)"
       y="9.7537365"
       x="11.02621"
       height="4.1265807"
       width="2.1258144"
       id="rect3270"
       style="fill:#32353c;fill-opacity:1;fill-rule:evenodd;stroke:none;stroke-width:3.54330707;stroke-miterlimit:4;stroke-dasharray:none;stroke-opacity:1" />
    <rect
       transform="matrix(0,-1,-1,0,0,0)"
       y="9.7537365"
       x="14.010662"
       height="4.1265807"
       width="2.1258144"
       id="rect3272"
       style="fill:#32353c;fill-opacity:1;fill-rule:evenodd;stroke:none;stroke-width:3.54330707;stroke-miterlimit:4;stroke-dasharray:none;stroke-opacity:1" />
    <rect
       transform="matrix(0,-1,-1,0,0,0)"
       y="9.7537365"
       x="16.995113"
       height="4.1265807"
       width="2.1258144"
       id="rect3274"
       style="fill:#32353c;fill-opacity:1;fill-rule:evenodd;stroke:none;stroke-width:3.54330707;stroke-miterlimit:4;stroke-dasharray:none;stroke-opacity:1" />
    <rect
       transform="matrix(0,-1,-1,0,0,0)"
       y="9.7537365"
       x="19.979565"
       height="4.1265807"
       width="2.1258144"
       id="rect3276"
       style="fill:#32353c;fill-opacity:1;fill-rule:evenodd;stroke:none;stroke-width:3.54330707;stroke-miterlimit:4;stroke-dasharray:none;stroke-opacity:1" />
    <rect
       transform="matrix(0,-1,-1,0,0,0)"
       y="9.7537365"
       x="22.964018"
       height="4.1265807"
       width="2.1258144"
       id="rect3278"
       style="fill:#32353c;fill-opacity:1;fill-rule:evenodd;stroke:none;stroke-width:3.54330707;stroke-miterlimit:4;stroke-dasharray:none;stroke-opacity:1" />
    <rect
       transform="matrix(0,-1,-1,0,0,0)"
       y="9.7537365"
       x="25.948471"
       height="4.1265807"
       width="2.1258144"
       id="rect3280"
       style="fill:#32353c;fill-opacity:1;fill-rule:evenodd;stroke:none;stroke-width:3.54330707;stroke-miterlimit:4;stroke-dasharray:none;stroke-opacity:1" />
    <rect
       transform="matrix(0,-1,-1,0,0,0)"
       y="9.7537365"
       x="28.932922"
       height="4.1265807"
       width="2.1258144"
       id="rect3282"
       style="fill:#32353c;fill-opacity:1;fill-rule:evenodd;stroke:none;stroke-width:3.54330707;stroke-miterlimit:4;stroke-dasharray:none;stroke-opacity:1" />
    <rect
       transform="matrix(0,-1,-1,0,0,0)"
       y="9.7537365"
       x="31.917372"
       height="4.1265807"
       width="2.1258144"
       id="rect3284"
       style="fill:#32353c;fill-opacity:1;fill-rule:evenodd;stroke:none;stroke-width:3.54330707;stroke-miterlimit:4;stroke-dasharray:none;stroke-opacity:1" />
    <rect
       transform="matrix(0,-1,-1,0,0,0)"
       y="9.7537365"
       x="34.901825"
       height="4.1265807"
       width="2.1258144"
       id="rect3286"
       style="fill:#32353c;fill-opacity:1;fill-rule:evenodd;stroke:none;stroke-width:3.54330707;stroke-miterlimit:4;stroke-dasharray:none;stroke-opacity:1" />
    <rect
       transform="matrix(0,-1,-1,0,0,0)"
       y="9.7537365"
       x="37.886276"
       height="4.1265807"
       width="2.1258144"
       id="rect3288"
       style="fill:#32353c;fill-opacity:1;fill-rule:evenodd;stroke:none;stroke-width:3.54330707;stroke-miterlimit:4;stroke-dasharray:none;stroke-opacity:1" />
    <rect
       transform="matrix(0,-1,-1,0,0,0)"
       y="9.7537365"
       x="40.870731"
       height="4.1265807"
       width="2.1258144"
       id="rect3290"
       style="fill:#32353c;fill-opacity:1;fill-rule:evenodd;stroke:none;stroke-width:3.54330707;stroke-miterlimit:4;stroke-dasharray:none;stroke-opacity:1" />
    <rect
       transform="matrix(0,-1,-1,0,0,0)"
       y="9.7537365"
       x="43.855183"
       height="4.1265807"
       width="2.1258144"
       id="rect3292"
       style="fill:#32353c;fill-opacity:1;fill-rule:evenodd;stroke:none;stroke-width:3.54330707;stroke-miterlimit:4;stroke-dasharray:none;stroke-opacity:1" />
    <rect
       transform="matrix(0,-1,-1,0,0,0)"
       y="9.7537365"
       x="46.839634"
       height="4.1265807"
       width="2.1258144"
       id="rect3294"
       style="fill:#32353c;fill-opacity:1;fill-rule:evenodd;stroke:none;stroke-width:3.54330707;stroke-miterlimit:4;stroke-dasharray:none;stroke-opacity:1" />
    <rect
       transform="matrix(0,-1,-1,0,0,0)"
       y="9.7537365"
       x="49.824085"
       height="4.1265807"
       width="2.1258144"
       id="rect3296"
       style="fill:#32353c;fill-opacity:1;fill-rule:evenodd;stroke:none;stroke-width:3.54330707;stroke-miterlimit:4;stroke-dasharray:none;stroke-opacity:1" />
    <rect
       transform="matrix(0,-1,-1,0,0,0)"
       y="9.7537365"
       x="55.792988"
       height="4.1265807"
       width="2.1258144"
       id="rect3298"
       style="fill:#32353c;fill-opacity:1;fill-rule:evenodd;stroke:none;stroke-width:3.54330707;stroke-miterlimit:4;stroke-dasharray:none;stroke-opacity:1" />
    <rect
       transform="matrix(0,-1,-1,0,0,0)"
       y="9.7537365"
       x="58.777439"
       height="4.1265807"
       width="2.1258144"
       id="rect3300"
       style="fill:#32353c;fill-opacity:1;fill-rule:evenodd;stroke:none;stroke-width:3.54330707;stroke-miterlimit:4;stroke-dasharray:none;stroke-opacity:1" />
    <rect
       transform="matrix(0,-1,-1,0,0,0)"
       y="9.7537365"
       x="61.76189"
       height="4.1265807"
       width="2.1258144"
       id="rect3302"
       style="fill:#32353c;fill-opacity:1;fill-rule:evenodd;stroke:none;stroke-width:3.54330707;stroke-miterlimit:4;stroke-dasharray:none;stroke-opacity:1" />
    <rect
       transform="matrix(0,-1,-1,0,0,0)"
       y="9.7537365"
       x="-42.69392"
       height="4.1265807"
       width="2.1258144"
       id="rect3508"
       style="fill:#32353c;fill-opacity:1;fill-rule:evenodd;stroke:none;stroke-width:3.54330707;stroke-miterlimit:4;stroke-dasharray:none;stroke-opacity:1" />
    <rect
       transform="matrix(0,-1,-1,0,0,0)"
       y="9.7537365"
       x="-39.709469"
       height="4.1265807"
       width="2.1258144"
       id="rect3510"
       style="fill:#32353c;fill-opacity:1;fill-rule:evenodd;stroke:none;stroke-width:3.54330707;stroke-miterlimit:4;stroke-dasharray:none;stroke-opacity:1" />
    <rect
       transform="matrix(0,-1,-1,0,0,0)"
       y="9.7537365"
       x="-36.725018"
       height="4.1265807"
       width="2.1258144"
       id="rect3512"
       style="fill:#32353c;fill-opacity:1;fill-rule:evenodd;stroke:none;stroke-width:3.54330707;stroke-miterlimit:4;stroke-dasharray:none;stroke-opacity:1" />
    <rect
       transform="matrix(0,-1,-1,0,0,0)"
       y="9.7537365"
       x="-33.740566"
       height="4.1265807"
       width="2.1258144"
       id="rect3514"
       style="fill:#32353c;fill-opacity:1;fill-rule:evenodd;stroke:none;stroke-width:3.54330707;stroke-miterlimit:4;stroke-dasharray:none;stroke-opacity:1" />
    <rect
       transform="matrix(0,-1,-1,0,0,0)"
       y="9.7537365"
       x="-30.756115"
       height="4.1265807"
       width="2.1258144"
       id="rect3516"
       style="fill:#32353c;fill-opacity:1;fill-rule:evenodd;stroke:none;stroke-width:3.54330707;stroke-miterlimit:4;stroke-dasharray:none;stroke-opacity:1" />
    <rect
       transform="matrix(0,-1,-1,0,0,0)"
       y="9.7537365"
       x="-27.771662"
       height="4.1265807"
       width="2.1258144"
       id="rect3518"
       style="fill:#32353c;fill-opacity:1;fill-rule:evenodd;stroke:none;stroke-width:3.54330707;stroke-miterlimit:4;stroke-dasharray:none;stroke-opacity:1" />
    <rect
       transform="matrix(0,-1,-1,0,0,0)"
       y="9.7537365"
       x="52.808537"
       height="4.1265807"
       width="2.1258144"
       id="rect3520"
       style="fill:#32353c;fill-opacity:1;fill-rule:evenodd;stroke:none;stroke-width:3.54330707;stroke-miterlimit:4;stroke-dasharray:none;stroke-opacity:1" />
  </g>
  <rect
     style="fill:#3a3e48;fill-opacity:1;fill-rule:evenodd;stroke:none;stroke-width:3.54330707;stroke-miterlimit:4;stroke-dasharray:none;stroke-opacity:1"
     id="rect3602"
     width="500"
     height="4"
     x="-500"
     y="-10"
     transform="matrix(0,-1,-1,0,0,0)" />
  <g
     id="g3604"
     transform="matrix(0.9693255,0,0,4.6912402,19.454545,299.71257)"
     style="fill:#32353c;fill-opacity:1">
    <rect
       transform="matrix(0,-1,-1,0,0,0)"
       y="9.7537365"
       x="-24.78721"
       height="4.1265807"
       width="2.1258144"
       id="rect3606"
       style="fill:#32353c;fill-opacity:1;fill-rule:evenodd;stroke:none;stroke-width:3.54330707;stroke-miterlimit:4;stroke-dasharray:none;stroke-opacity:1" />
    <rect
       transform="matrix(0,-1,-1,0,0,0)"
       y="9.7537365"
       x="-21.802757"
       height="4.1265807"
       width="2.1258144"
       id="rect3608"
       style="fill:#32353c;fill-opacity:1;fill-rule:evenodd;stroke:none;stroke-width:3.54330707;stroke-miterlimit:4;stroke-dasharray:none;stroke-opacity:1" />
    <rect
       transform="matrix(0,-1,-1,0,0,0)"
       y="9.7537365"
       x="-18.818308"
       height="4.1265807"
       width="2.1258144"
       id="rect3610"
       style="fill:#32353c;fill-opacity:1;fill-rule:evenodd;stroke:none;stroke-width:3.54330707;stroke-miterlimit:4;stroke-dasharray:none;stroke-opacity:1" />
    <rect
       transform="matrix(0,-1,-1,0,0,0)"
       y="9.7537365"
       x="-15.833855"
       height="4.1265807"
       width="2.1258144"
       id="rect3612"
       style="fill:#32353c;fill-opacity:1;fill-rule:evenodd;stroke:none;stroke-width:3.54330707;stroke-miterlimit:4;stroke-dasharray:none;stroke-opacity:1" />
    <rect
       transform="matrix(0,-1,-1,0,0,0)"
       y="9.7537365"
       x="-12.849403"
       height="4.1265807"
       width="2.1258144"
       id="rect3614"
       style="fill:#32353c;fill-opacity:1;fill-rule:evenodd;stroke:none;stroke-width:3.54330707;stroke-miterlimit:4;stroke-dasharray:none;stroke-opacity:1" />
    <rect
       transform="matrix(0,-1,-1,0,0,0)"
       y="9.7537365"
       x="-9.864953"
       height="4.1265807"
       width="2.1258144"
       id="rect3616"
       style="fill:#32353c;fill-opacity:1;fill-rule:evenodd;stroke:none;stroke-width:3.54330707;stroke-miterlimit:4;stroke-dasharray:none;stroke-opacity:1" />
    <rect
       transform="matrix(0,-1,-1,0,0,0)"
       y="9.7537365"
       x="-6.8804989"
       height="4.1265807"
       width="2.1258144"
       id="rect3618"
       style="fill:#32353c;fill-opacity:1;fill-rule:evenodd;stroke:none;stroke-width:3.54330707;stroke-miterlimit:4;stroke-dasharray:none;stroke-opacity:1" />
    <rect
       transform="matrix(0,-1,-1,0,0,0)"
       y="9.7537365"
       x="-3.8960471"
       height="4.1265807"
       width="2.1258144"
       id="rect3620"
       style="fill:#32353c;fill-opacity:1;fill-rule:evenodd;stroke:none;stroke-width:3.54330707;stroke-miterlimit:4;stroke-dasharray:none;stroke-opacity:1" />
    <rect
       transform="matrix(0,-1,-1,0,0,0)"
       y="9.7537365"
       x="-0.9115954"
       height="4.1265807"
       width="2.1258144"
       id="rect3622"
       style="fill:#32353c;fill-opacity:1;fill-rule:evenodd;stroke:none;stroke-width:3.54330707;stroke-miterlimit:4;stroke-dasharray:none;stroke-opacity:1" />
    <rect
       transform="matrix(0,-1,-1,0,0,0)"
       y="9.7537365"
       x="2.0728567"
       height="4.1265807"
       width="2.1258144"
       id="rect3624"
       style="fill:#32353c;fill-opacity:1;fill-rule:evenodd;stroke:none;stroke-width:3.54330707;stroke-miterlimit:4;stroke-dasharray:none;stroke-opacity:1" />
    <rect
       transform="matrix(0,-1,-1,0,0,0)"
       y="9.7537365"
       x="5.0573082"
       height="4.1265807"
       width="2.1258144"
       id="rect3626"
       style="fill:#32353c;fill-opacity:1;fill-rule:evenodd;stroke:none;stroke-width:3.54330707;stroke-miterlimit:4;stroke-dasharray:none;stroke-opacity:1" />
    <rect
       transform="matrix(0,-1,-1,0,0,0)"
       y="9.7537365"
       x="8.0417604"
       height="4.1265807"
       width="2.1258144"
       id="rect3628"
       style="fill:#32353c;fill-opacity:1;fill-rule:evenodd;stroke:none;stroke-width:3.54330707;stroke-miterlimit:4;stroke-dasharray:none;stroke-opacity:1" />
    <rect
       transform="matrix(0,-1,-1,0,0,0)"
       y="9.7537365"
       x="11.02621"
       height="4.1265807"
       width="2.1258144"
       id="rect3630"
       style="fill:#32353c;fill-opacity:1;fill-rule:evenodd;stroke:none;stroke-width:3.54330707;stroke-miterlimit:4;stroke-dasharray:none;stroke-opacity:1" />
    <rect
       transform="matrix(0,-1,-1,0,0,0)"
       y="9.7537365"
       x="14.010662"
       height="4.1265807"
       width="2.1258144"
       id="rect3632"
       style="fill:#32353c;fill-opacity:1;fill-rule:evenodd;stroke:none;stroke-width:3.54330707;stroke-miterlimit:4;stroke-dasharray:none;stroke-opacity:1" />
    <rect
       transform="matrix(0,-1,-1,0,0,0)"
       y="9.7537365"
       x="16.995113"
       height="4.1265807"
       width="2.1258144"
       id="rect3634"
       style="fill:#32353c;fill-opacity:1;fill-rule:evenodd;stroke:none;stroke-width:3.54330707;stroke-miterlimit:4;stroke-dasharray:none;stroke-opacity:1" />
    <rect
       transform="matrix(0,-1,-1,0,0,0)"
       y="9.7537365"
       x="19.979565"
       height="4.1265807"
       width="2.1258144"
       id="rect3636"
       style="fill:#32353c;fill-opacity:1;fill-rule:evenodd;stroke:none;stroke-width:3.54330707;stroke-miterlimit:4;stroke-dasharray:none;stroke-opacity:1" />
    <rect
       transform="matrix(0,-1,-1,0,0,0)"
       y="9.7537365"
       x="22.964018"
       height="4.1265807"
       width="2.1258144"
       id="rect3638"
       style="fill:#32353c;fill-opacity:1;fill-rule:evenodd;stroke:none;stroke-width:3.54330707;stroke-miterlimit:4;stroke-dasharray:none;stroke-opacity:1" />
    <rect
       transform="matrix(0,-1,-1,0,0,0)"
       y="9.7537365"
       x="25.948471"
       height="4.1265807"
       width="2.1258144"
       id="rect3640"
       style="fill:#32353c;fill-opacity:1;fill-rule:evenodd;stroke:none;stroke-width:3.54330707;stroke-miterlimit:4;stroke-dasharray:none;stroke-opacity:1" />
    <rect
       transform="matrix(0,-1,-1,0,0,0)"
       y="9.7537365"
       x="28.932922"
       height="4.1265807"
       width="2.1258144"
       id="rect3642"
       style="fill:#32353c;fill-opacity:1;fill-rule:evenodd;stroke:none;stroke-width:3.54330707;stroke-miterlimit:4;stroke-dasharray:none;stroke-opacity:1" />
    <rect
       transform="matrix(0,-1,-1,0,0,0)"
       y="9.7537365"
       x="31.917372"
       height="4.1265807"
       width="2.1258144"
       id="rect3644"
       style="fill:#32353c;fill-opacity:1;fill-rule:evenodd;stroke:none;stroke-width:3.54330707;stroke-miterlimit:4;stroke-dasharray:none;stroke-opacity:1" />
    <rect
       transform="matrix(0,-1,-1,0,0,0)"
       y="9.7537365"
       x="34.901825"
       height="4.1265807"
       width="2.1258144"
       id="rect3646"
       style="fill:#32353c;fill-opacity:1;fill-rule:evenodd;stroke:none;stroke-width:3.54330707;stroke-miterlimit:4;stroke-dasharray:none;stroke-opacity:1" />
    <rect
       transform="matrix(0,-1,-1,0,0,0)"
       y="9.7537365"
       x="37.886276"
       height="4.1265807"
       width="2.1258144"
       id="rect3648"
       style="fill:#32353c;fill-opacity:1;fill-rule:evenodd;stroke:none;stroke-width:3.54330707;stroke-miterlimit:4;stroke-dasharray:none;stroke-opacity:1" />
    <rect
       transform="matrix(0,-1,-1,0,0,0)"
       y="9.7537365"
       x="40.870731"
       height="4.1265807"
       width="2.1258144"
       id="rect3650"
       style="fill:#32353c;fill-opacity:1;fill-rule:evenodd;stroke:none;stroke-width:3.54330707;stroke-miterlimit:4;stroke-dasharray:none;stroke-opacity:1" />
    <rect
       transform="matrix(0,-1,-1,0,0,0)"
       y="9.7537365"
       x="43.855183"
       height="4.1265807"
       width="2.1258144"
       id="rect3652"
       style="fill:#32353c;fill-opacity:1;fill-rule:evenodd;stroke:none;stroke-width:3.54330707;stroke-miterlimit:4;stroke-dasharray:none;stroke-opacity:1" />
    <rect
       transform="matrix(0,-1,-1,0,0,0)"
       y="9.7537365"
       x="46.839634"
       height="4.1265807"
       width="2.1258144"
       id="rect3654"
       style="fill:#32353c;fill-opacity:1;fill-rule:evenodd;stroke:none;stroke-width:3.54330707;stroke-miterlimit:4;stroke-dasharray:none;stroke-opacity:1" />
    <rect
       transform="matrix(0,-1,-1,0,0,0)"
       y="9.7537365"
       x="49.824085"
       height="4.1265807"
       width="2.1258144"
       id="rect3656"
       style="fill:#32353c;fill-opacity:1;fill-rule:evenodd;stroke:none;stroke-width:3.54330707;stroke-miterlimit:4;stroke-dasharray:none;stroke-opacity:1" />
    <rect
       transform="matrix(0,-1,-1,0,0,0)"
       y="9.7537365"
       x="55.792988"
       height="4.1265807"
       width="2.1258144"
       id="rect3658"
       style="fill:#32353c;fill-opacity:1;fill-rule:evenodd;stroke:none;stroke-width:3.54330707;stroke-miterlimit:4;stroke-dasharray:none;stroke-opacity:1" />
    <rect
       transform="matrix(0,-1,-1,0,0,0)"
       y="9.7537365"
       x="58.777439"
       height="4.1265807"
       width="2.1258144"
       id="rect3660"
       style="fill:#32353c;fill-opacity:1;fill-rule:evenodd;stroke:none;stroke-width:3.54330707;stroke-miterlimit:4;stroke-dasharray:none;stroke-opacity:1" />
    <rect
       transform="matrix(0,-1,-1,0,0,0)"
       y="9.7537365"
       x="61.76189"
       height="4.1265807"
       width="2.1258144"
       id="rect3662"
       style="fill:#32353c;fill-opacity:1;fill-rule:evenodd;stroke:none;stroke-width:3.54330707;stroke-miterlimit:4;stroke-dasharray:none;stroke-opacity:1" />
    <rect
       transform="matrix(0,-1,-1,0,0,0)"
       y="9.7537365"
       x="-42.69392"
       height="4.1265807"
       width="2.1258144"
       id="rect3664"
       style="fill:#32353c;fill-opacity:1;fill-rule:evenodd;stroke:none;stroke-width:3.54330707;stroke-miterlimit:4;stroke-dasharray:none;stroke-opacity:1" />
    <rect
       transform="matrix(0,-1,-1,0,0,0)"
       y="9.7537365"
       x="-39.709469"
       height="4.1265807"
       width="2.1258144"
       id="rect3666"
       style="fill:#32353c;fill-opacity:1;fill-rule:evenodd;stroke:none;stroke-width:3.54330707;stroke-miterlimit:4;stroke-dasharray:none;stroke-opacity:1" />
    <rect
       transform="matrix(0,-1,-1,0,0,0)"
       y="9.7537365"
       x="-36.725018"
       height="4.1265807"
       width="2.1258144"
       id="rect3668"
       style="fill:#32353c;fill-opacity:1;fill-rule:evenodd;stroke:none;stroke-width:3.54330707;stroke-miterlimit:4;stroke-dasharray:none;stroke-opacity:1" />
    <rect
       transform="matrix(0,-1,-1,0,0,0)"
       y="9.7537365"
       x="-33.740566"
       height="4.1265807"
       width="2.1258144"
       id="rect3670"
       style="fill:#32353c;fill-opacity:1;fill-rule:evenodd;stroke:none;stroke-width:3.54330707;stroke-miterlimit:4;stroke-dasharray:none;stroke-opacity:1" />
    <rect
       transform="matrix(0,-1,-1,0,0,0)"
       y="9.7537365"
       x="-30.756115"
       height="4.1265807"
       width="2.1258144"
       id="rect3672"
       style="fill:#32353c;fill-opacity:1;fill-rule:evenodd;stroke:none;stroke-width:3.54330707;stroke-miterlimit:4;stroke-dasharray:none;stroke-opacity:1" />
    <rect
       transform="matrix(0,-1,-1,0,0,0)"
       y="9.7537365"
       x="-27.771662"
       height="4.1265807"
       width="2.1258144"
       id="rect3674"
       style="fill:#32353c;fill-opacity:1;fill-rule:evenodd;stroke:none;stroke-width:3.54330707;stroke-miterlimit:4;stroke-dasharray:none;stroke-opacity:1" />
    <rect
       transform="matrix(0,-1,-1,0,0,0)"
       y="9.7537365"
       x="52.808537"
       height="4.1265807"
       width="2.1258144"
       id="rect3676"
       style="fill:#32353c;fill-opacity:1;fill-rule:evenodd;stroke:none;stroke-width:3.54330707;stroke-miterlimit:4;stroke-dasharray:none;stroke-opacity:1" />
  </g>
</svg>
